<?xml version="1.0" encoding="UTF-8" standalone="no"?>
<!DOCTYPE svg PUBLIC "-//W3C//DTD SVG 1.1//EN"
 "http://www.w3.org/Graphics/SVG/1.1/DTD/svg11.dtd">
<!-- Generated by graphviz version 2.40.1 (20161225.0304)
 -->
<!-- Title: G Pages: 1 -->
<svg width="1207pt" height="943pt"
 viewBox="0.00 0.00 1206.50 943.20" xmlns="http://www.w3.org/2000/svg" xmlns:xlink="http://www.w3.org/1999/xlink">
<g id="graph0" class="graph" transform="scale(1 1) rotate(0) translate(4 939.2)">
<title>G</title>
<polygon fill="#ffffff" stroke="transparent" points="-4,4 -4,-939.2 1202.5032,-939.2 1202.5032,4 -4,4"/>
<!-- GO:0090304 -->
<g id="node1" class="node">
<title>GO:0090304</title>
<polygon fill="#ffa500" stroke="#000000" points="382.2936,-446.6014 240.3916,-446.6014 240.3916,-387.7986 382.2936,-387.7986 382.2936,-446.6014"/>
<text text-anchor="middle" x="311.3426" y="-429.8" font-family="Times,serif" font-size="14.00" fill="#000000">GO:0090304</text>
<text text-anchor="middle" x="311.3426" y="-413" font-family="Times,serif" font-size="14.00" fill="#000000">nucleic acid metabolic</text>
<text text-anchor="middle" x="311.3426" y="-396.2" font-family="Times,serif" font-size="14.00" fill="#000000">process</text>
</g>
<!-- GO:0006139 -->
<g id="node2" class="node">
<title>GO:0006139</title>
<polygon fill="#ff0000" stroke="#000000" points="411.2978,-557.7003 269.3874,-557.7003 269.3874,-482.2997 411.2978,-482.2997 411.2978,-557.7003"/>
<text text-anchor="middle" x="340.3426" y="-541" font-family="Times,serif" font-size="14.00" fill="#000000">GO:0006139</text>
<text text-anchor="middle" x="340.3426" y="-524.2" font-family="Times,serif" font-size="14.00" fill="#000000">nucleobase&#45;containing</text>
<text text-anchor="middle" x="340.3426" y="-507.4" font-family="Times,serif" font-size="14.00" fill="#000000">compound metabolic</text>
<text text-anchor="middle" x="340.3426" y="-490.6" font-family="Times,serif" font-size="14.00" fill="#000000">process</text>
</g>
<!-- GO:0090304&#45;&gt;GO:0006139 -->
<g id="edge1" class="edge">
<title>GO:0090304&#45;&gt;GO:0006139</title>
<path fill="none" stroke="#000000" d="M319.6528,-446.6584C321.9147,-454.6763 324.424,-463.5712 326.8924,-472.3215"/>
<polygon fill="#000000" stroke="#000000" points="323.5631,-473.4109 329.6467,-482.085 330.3001,-471.5103 323.5631,-473.4109"/>
</g>
<!-- GO:0043170 -->
<g id="node3" class="node">
<title>GO:0043170</title>
<polygon fill="#ffa500" stroke="#000000" points="251.8448,-549.4014 90.8404,-549.4014 90.8404,-490.5986 251.8448,-490.5986 251.8448,-549.4014"/>
<text text-anchor="middle" x="171.3426" y="-532.6" font-family="Times,serif" font-size="14.00" fill="#000000">GO:0043170</text>
<text text-anchor="middle" x="171.3426" y="-515.8" font-family="Times,serif" font-size="14.00" fill="#000000">macromolecule metabolic</text>
<text text-anchor="middle" x="171.3426" y="-499" font-family="Times,serif" font-size="14.00" fill="#000000">process</text>
</g>
<!-- GO:0090304&#45;&gt;GO:0043170 -->
<g id="edge2" class="edge">
<title>GO:0090304&#45;&gt;GO:0043170</title>
<path fill="none" stroke="#000000" d="M271.2242,-446.6584C255.1147,-458.4874 236.4058,-472.2251 219.5647,-484.5912"/>
<polygon fill="#000000" stroke="#000000" points="217.4557,-481.7975 211.4668,-490.5373 221.5988,-487.4398 217.4557,-481.7975"/>
</g>
<!-- GO:0044238 -->
<g id="node4" class="node">
<title>GO:0044238</title>
<polygon fill="#ff0000" stroke="#000000" points="299.3456,-754.6019 135.3396,-754.6019 135.3396,-713.3981 299.3456,-713.3981 299.3456,-754.6019"/>
<text text-anchor="middle" x="217.3426" y="-738.2" font-family="Times,serif" font-size="14.00" fill="#000000">GO:0044238</text>
<text text-anchor="middle" x="217.3426" y="-721.4" font-family="Times,serif" font-size="14.00" fill="#000000">primary metabolic process</text>
</g>
<!-- GO:0006139&#45;&gt;GO:0044238 -->
<g id="edge3" class="edge">
<title>GO:0006139&#45;&gt;GO:0044238</title>
<path fill="none" stroke="#000000" d="M294.2632,-557.7356C283.3154,-568.4305 272.4694,-580.7017 264.3426,-593.6 242.6471,-628.0336 229.8097,-673.5801 223.1722,-703.3216"/>
<polygon fill="#000000" stroke="#000000" points="219.7414,-702.6282 221.0786,-713.1383 226.5875,-704.0882 219.7414,-702.6282"/>
</g>
<!-- GO:0034641 -->
<g id="node5" class="node">
<title>GO:0034641</title>
<polygon fill="#ffffff" stroke="#000000" points="407.1541,-668.9003 273.5311,-668.9003 273.5311,-593.4997 407.1541,-593.4997 407.1541,-668.9003"/>
<text text-anchor="middle" x="340.3426" y="-652.2" font-family="Times,serif" font-size="14.00" fill="#000000">GO:0034641</text>
<text text-anchor="middle" x="340.3426" y="-635.4" font-family="Times,serif" font-size="14.00" fill="#000000">cellular nitrogen</text>
<text text-anchor="middle" x="340.3426" y="-618.6" font-family="Times,serif" font-size="14.00" fill="#000000">compound metabolic</text>
<text text-anchor="middle" x="340.3426" y="-601.8" font-family="Times,serif" font-size="14.00" fill="#000000">process</text>
</g>
<!-- GO:0006139&#45;&gt;GO:0034641 -->
<g id="edge4" class="edge">
<title>GO:0006139&#45;&gt;GO:0034641</title>
<path fill="none" stroke="#000000" d="M340.3426,-557.6472C340.3426,-565.98 340.3426,-574.9155 340.3426,-583.5863"/>
<polygon fill="#000000" stroke="#000000" points="336.8427,-583.5915 340.3426,-593.5915 343.8427,-583.5916 336.8427,-583.5915"/>
</g>
<!-- GO:0006725 -->
<g id="node6" class="node">
<title>GO:0006725</title>
<polygon fill="#ff0000" stroke="#000000" points="559.1541,-668.9003 425.5311,-668.9003 425.5311,-593.4997 559.1541,-593.4997 559.1541,-668.9003"/>
<text text-anchor="middle" x="492.3426" y="-652.2" font-family="Times,serif" font-size="14.00" fill="#000000">GO:0006725</text>
<text text-anchor="middle" x="492.3426" y="-635.4" font-family="Times,serif" font-size="14.00" fill="#000000">cellular aromatic</text>
<text text-anchor="middle" x="492.3426" y="-618.6" font-family="Times,serif" font-size="14.00" fill="#000000">compound metabolic</text>
<text text-anchor="middle" x="492.3426" y="-601.8" font-family="Times,serif" font-size="14.00" fill="#000000">process</text>
</g>
<!-- GO:0006139&#45;&gt;GO:0006725 -->
<g id="edge5" class="edge">
<title>GO:0006139&#45;&gt;GO:0006725</title>
<path fill="none" stroke="#000000" d="M391.8029,-557.6472C404.9263,-567.2481 419.1433,-577.6489 432.6406,-587.5232"/>
<polygon fill="#000000" stroke="#000000" points="430.7979,-590.5118 440.9353,-593.5915 434.9311,-584.8623 430.7979,-590.5118"/>
</g>
<!-- GO:1901360 -->
<g id="node7" class="node">
<title>GO:1901360</title>
<polygon fill="#ff0000" stroke="#000000" points="216.854,-660.6014 59.8312,-660.6014 59.8312,-601.7986 216.854,-601.7986 216.854,-660.6014"/>
<text text-anchor="middle" x="138.3426" y="-643.8" font-family="Times,serif" font-size="14.00" fill="#000000">GO:1901360</text>
<text text-anchor="middle" x="138.3426" y="-627" font-family="Times,serif" font-size="14.00" fill="#000000">organic cyclic compound</text>
<text text-anchor="middle" x="138.3426" y="-610.2" font-family="Times,serif" font-size="14.00" fill="#000000">metabolic process</text>
</g>
<!-- GO:0006139&#45;&gt;GO:1901360 -->
<g id="edge6" class="edge">
<title>GO:0006139&#45;&gt;GO:1901360</title>
<path fill="none" stroke="#000000" d="M271.9546,-557.6472C248.8156,-570.3852 223.1184,-584.5313 200.4907,-596.9878"/>
<polygon fill="#000000" stroke="#000000" points="198.7276,-593.963 191.6552,-601.8517 202.1034,-600.0952 198.7276,-593.963"/>
</g>
<!-- GO:0046483 -->
<g id="node8" class="node">
<title>GO:0046483</title>
<polygon fill="#ff0000" stroke="#000000" points="717.0638,-660.6014 577.6214,-660.6014 577.6214,-601.7986 717.0638,-601.7986 717.0638,-660.6014"/>
<text text-anchor="middle" x="647.3426" y="-643.8" font-family="Times,serif" font-size="14.00" fill="#000000">GO:0046483</text>
<text text-anchor="middle" x="647.3426" y="-627" font-family="Times,serif" font-size="14.00" fill="#000000">heterocycle metabolic</text>
<text text-anchor="middle" x="647.3426" y="-610.2" font-family="Times,serif" font-size="14.00" fill="#000000">process</text>
</g>
<!-- GO:0006139&#45;&gt;GO:0046483 -->
<g id="edge7" class="edge">
<title>GO:0006139&#45;&gt;GO:0046483</title>
<path fill="none" stroke="#000000" d="M411.5511,-540.3436C456.9524,-553.9602 516.7387,-573.0943 568.3426,-593.6 571.6179,-594.9015 574.9485,-596.276 578.2974,-597.6995"/>
<polygon fill="#000000" stroke="#000000" points="577.1877,-601.0338 587.7532,-601.8212 579.9848,-594.6169 577.1877,-601.0338"/>
</g>
<!-- GO:0071704 -->
<g id="node9" class="node">
<title>GO:0071704</title>
<polygon fill="#ff0000" stroke="#000000" points="116.5282,-763.4014 .157,-763.4014 .157,-704.5986 116.5282,-704.5986 116.5282,-763.4014"/>
<text text-anchor="middle" x="58.3426" y="-746.6" font-family="Times,serif" font-size="14.00" fill="#000000">GO:0071704</text>
<text text-anchor="middle" x="58.3426" y="-729.8" font-family="Times,serif" font-size="14.00" fill="#000000">organic substance</text>
<text text-anchor="middle" x="58.3426" y="-713" font-family="Times,serif" font-size="14.00" fill="#000000">metabolic process</text>
</g>
<!-- GO:0043170&#45;&gt;GO:0071704 -->
<g id="edge8" class="edge">
<title>GO:0043170&#45;&gt;GO:0071704</title>
<path fill="none" stroke="#000000" d="M96.7901,-549.3086C78.3578,-560.314 60.886,-574.8462 50.3426,-593.6 33.0577,-624.3452 37.829,-665.1018 45.2675,-694.7794"/>
<polygon fill="#000000" stroke="#000000" points="41.9838,-696.0439 47.978,-704.7801 48.7401,-694.2127 41.9838,-696.0439"/>
</g>
<!-- GO:0008152 -->
<g id="node10" class="node">
<title>GO:0008152</title>
<polygon fill="#ffffff" stroke="#000000" points="438.5282,-849.0019 322.157,-849.0019 322.157,-807.7981 438.5282,-807.7981 438.5282,-849.0019"/>
<text text-anchor="middle" x="380.3426" y="-832.6" font-family="Times,serif" font-size="14.00" fill="#000000">GO:0008152</text>
<text text-anchor="middle" x="380.3426" y="-815.8" font-family="Times,serif" font-size="14.00" fill="#000000">metabolic process</text>
</g>
<!-- GO:0044238&#45;&gt;GO:0008152 -->
<g id="edge9" class="edge">
<title>GO:0044238&#45;&gt;GO:0008152</title>
<path fill="none" stroke="#000000" d="M253.1136,-754.7165C277.4245,-768.7959 309.7615,-787.5236 335.7506,-802.575"/>
<polygon fill="#000000" stroke="#000000" points="334.2474,-805.7489 344.655,-807.7318 337.7555,-799.6914 334.2474,-805.7489"/>
</g>
<!-- GO:0006807 -->
<g id="node11" class="node">
<title>GO:0006807</title>
<polygon fill="#ff0000" stroke="#000000" points="443.1045,-763.4014 317.5807,-763.4014 317.5807,-704.5986 443.1045,-704.5986 443.1045,-763.4014"/>
<text text-anchor="middle" x="380.3426" y="-746.6" font-family="Times,serif" font-size="14.00" fill="#000000">GO:0006807</text>
<text text-anchor="middle" x="380.3426" y="-729.8" font-family="Times,serif" font-size="14.00" fill="#000000">nitrogen compound</text>
<text text-anchor="middle" x="380.3426" y="-713" font-family="Times,serif" font-size="14.00" fill="#000000">metabolic process</text>
</g>
<!-- GO:0034641&#45;&gt;GO:0006807 -->
<g id="edge10" class="edge">
<title>GO:0034641&#45;&gt;GO:0006807</title>
<path fill="none" stroke="#000000" d="M355.01,-668.8952C358.3472,-677.4718 361.8981,-686.5976 365.2526,-695.2187"/>
<polygon fill="#000000" stroke="#000000" points="362.0465,-696.6312 368.9346,-704.6814 368.5701,-694.0928 362.0465,-696.6312"/>
</g>
<!-- GO:0044237 -->
<g id="node12" class="node">
<title>GO:0044237</title>
<polygon fill="#ff0000" stroke="#000000" points="577.5254,-763.4014 461.1598,-763.4014 461.1598,-704.5986 577.5254,-704.5986 577.5254,-763.4014"/>
<text text-anchor="middle" x="519.3426" y="-746.6" font-family="Times,serif" font-size="14.00" fill="#000000">GO:0044237</text>
<text text-anchor="middle" x="519.3426" y="-729.8" font-family="Times,serif" font-size="14.00" fill="#000000">cellular metabolic</text>
<text text-anchor="middle" x="519.3426" y="-713" font-family="Times,serif" font-size="14.00" fill="#000000">process</text>
</g>
<!-- GO:0034641&#45;&gt;GO:0044237 -->
<g id="edge11" class="edge">
<title>GO:0034641&#45;&gt;GO:0044237</title>
<path fill="none" stroke="#000000" d="M405.9792,-668.8952C423.4825,-678.9474 442.2994,-689.754 459.4751,-699.618"/>
<polygon fill="#000000" stroke="#000000" points="457.8769,-702.7363 468.2917,-704.6814 461.3631,-696.6661 457.8769,-702.7363"/>
</g>
<!-- GO:0006725&#45;&gt;GO:0044237 -->
<g id="edge12" class="edge">
<title>GO:0006725&#45;&gt;GO:0044237</title>
<path fill="none" stroke="#000000" d="M502.2431,-668.8952C504.4715,-677.3796 506.841,-686.4015 509.0838,-694.9404"/>
<polygon fill="#000000" stroke="#000000" points="505.7166,-695.8985 511.6422,-704.6814 512.487,-694.1203 505.7166,-695.8985"/>
</g>
<!-- GO:1901360&#45;&gt;GO:0071704 -->
<g id="edge13" class="edge">
<title>GO:1901360&#45;&gt;GO:0071704</title>
<path fill="none" stroke="#000000" d="M115.4178,-660.6584C106.7145,-671.8421 96.6834,-684.7321 87.4819,-696.556"/>
<polygon fill="#000000" stroke="#000000" points="84.6501,-694.4959 81.2707,-704.5373 90.1745,-698.795 84.6501,-694.4959"/>
</g>
<!-- GO:0046483&#45;&gt;GO:0044237 -->
<g id="edge14" class="edge">
<title>GO:0046483&#45;&gt;GO:0044237</title>
<path fill="none" stroke="#000000" d="M610.6629,-660.6584C596.0681,-672.3798 579.1397,-685.9754 563.8517,-698.2536"/>
<polygon fill="#000000" stroke="#000000" points="561.6328,-695.5466 556.0276,-704.5373 566.0161,-701.0044 561.6328,-695.5466"/>
</g>
<!-- GO:0071704&#45;&gt;GO:0008152 -->
<g id="edge15" class="edge">
<title>GO:0071704&#45;&gt;GO:0008152</title>
<path fill="none" stroke="#000000" d="M116.724,-759.7483C119.9596,-760.9627 123.1807,-762.1225 126.3426,-763.2 188.1547,-784.2641 260.4403,-802.1925 312.0576,-813.8862"/>
<polygon fill="#000000" stroke="#000000" points="311.5723,-817.3643 322.0963,-816.1409 313.1063,-810.5345 311.5723,-817.3643"/>
</g>
<!-- GO:0008150 -->
<g id="node13" class="node">
<title>GO:0008150</title>
<polygon fill="#ffffff" stroke="#000000" points="800.8132,-935.0019 679.872,-935.0019 679.872,-893.7981 800.8132,-893.7981 800.8132,-935.0019"/>
<text text-anchor="middle" x="740.3426" y="-918.6" font-family="Times,serif" font-size="14.00" fill="#000000">GO:0008150</text>
<text text-anchor="middle" x="740.3426" y="-901.8" font-family="Times,serif" font-size="14.00" fill="#000000">biological_process</text>
</g>
<!-- GO:0008152&#45;&gt;GO:0008150 -->
<g id="edge16" class="edge">
<title>GO:0008152&#45;&gt;GO:0008150</title>
<path fill="none" stroke="#000000" d="M427.5223,-849.0216C435.7038,-852.1675 444.1995,-855.1699 452.3426,-857.6 525.1669,-879.3321 610.8734,-895.0192 669.7432,-904.3297"/>
<polygon fill="#000000" stroke="#000000" points="669.2629,-907.797 679.6831,-905.8815 670.3427,-900.8808 669.2629,-907.797"/>
</g>
<!-- GO:0006807&#45;&gt;GO:0008152 -->
<g id="edge17" class="edge">
<title>GO:0006807&#45;&gt;GO:0008152</title>
<path fill="none" stroke="#000000" d="M380.3426,-763.3513C380.3426,-774.2614 380.3426,-786.6637 380.3426,-797.692"/>
<polygon fill="#000000" stroke="#000000" points="376.8427,-797.7509 380.3426,-807.751 383.8427,-797.751 376.8427,-797.7509"/>
</g>
<!-- GO:0044237&#45;&gt;GO:0008152 -->
<g id="edge19" class="edge">
<title>GO:0044237&#45;&gt;GO:0008152</title>
<path fill="none" stroke="#000000" d="M476.1241,-763.3513C457.9063,-775.7236 436.8632,-790.0148 419.149,-802.0451"/>
<polygon fill="#000000" stroke="#000000" points="417.0536,-799.2373 410.7474,-807.751 420.9864,-805.0281 417.0536,-799.2373"/>
</g>
<!-- GO:0009987 -->
<g id="node14" class="node">
<title>GO:0009987</title>
<polygon fill="#ff0000" stroke="#000000" points="565.2988,-849.0019 461.3864,-849.0019 461.3864,-807.7981 565.2988,-807.7981 565.2988,-849.0019"/>
<text text-anchor="middle" x="513.3426" y="-832.6" font-family="Times,serif" font-size="14.00" fill="#000000">GO:0009987</text>
<text text-anchor="middle" x="513.3426" y="-815.8" font-family="Times,serif" font-size="14.00" fill="#000000">cellular process</text>
</g>
<!-- GO:0044237&#45;&gt;GO:0009987 -->
<g id="edge18" class="edge">
<title>GO:0044237&#45;&gt;GO:0009987</title>
<path fill="none" stroke="#000000" d="M517.4771,-763.3513C516.7836,-774.2614 515.9953,-786.6637 515.2944,-797.692"/>
<polygon fill="#000000" stroke="#000000" points="511.7965,-797.5491 514.655,-807.751 518.7824,-797.9932 511.7965,-797.5491"/>
</g>
<!-- GO:0009987&#45;&gt;GO:0008150 -->
<g id="edge24" class="edge">
<title>GO:0009987&#45;&gt;GO:0008150</title>
<path fill="none" stroke="#000000" d="M554.0217,-849.0412C560.4276,-852.0459 567.0219,-854.999 573.3426,-857.6 604.6468,-870.4818 640.0529,-882.829 670.1822,-892.7016"/>
<polygon fill="#000000" stroke="#000000" points="669.175,-896.0544 679.7672,-895.8175 671.3392,-889.3973 669.175,-896.0544"/>
</g>
<!-- GO:0050789 -->
<g id="node15" class="node">
<title>GO:0050789</title>
<polygon fill="#ff00ff" stroke="#000000" points="730.257,-857.8014 582.4282,-857.8014 582.4282,-798.9986 730.257,-798.9986 730.257,-857.8014"/>
<text text-anchor="middle" x="656.3426" y="-841" font-family="Times,serif" font-size="14.00" fill="#000000">GO:0050789</text>
<text text-anchor="middle" x="656.3426" y="-824.2" font-family="Times,serif" font-size="14.00" fill="#000000">regulation of biological</text>
<text text-anchor="middle" x="656.3426" y="-807.4" font-family="Times,serif" font-size="14.00" fill="#000000">process</text>
</g>
<!-- GO:0050789&#45;&gt;GO:0008150 -->
<g id="edge20" class="edge">
<title>GO:0050789&#45;&gt;GO:0008150</title>
<path fill="none" stroke="#000000" d="M685.2506,-857.9963C694.2231,-867.1824 704.0812,-877.2752 712.9475,-886.3526"/>
<polygon fill="#000000" stroke="#000000" points="710.6294,-888.9884 720.1206,-893.6966 715.637,-884.0972 710.6294,-888.9884"/>
</g>
<!-- GO:0044699 -->
<g id="node16" class="node">
<title>GO:0044699</title>
<polygon fill="#ff00ff" stroke="#000000" points="900.0239,-849.0019 748.6613,-849.0019 748.6613,-807.7981 900.0239,-807.7981 900.0239,-849.0019"/>
<text text-anchor="middle" x="824.3426" y="-832.6" font-family="Times,serif" font-size="14.00" fill="#000000">GO:0044699</text>
<text text-anchor="middle" x="824.3426" y="-815.8" font-family="Times,serif" font-size="14.00" fill="#000000">single&#45;organism process</text>
</g>
<!-- GO:0044699&#45;&gt;GO:0008150 -->
<g id="edge21" class="edge">
<title>GO:0044699&#45;&gt;GO:0008150</title>
<path fill="none" stroke="#000000" d="M804.0085,-849.2182C793.0716,-860.4156 779.4354,-874.3764 767.5919,-886.5019"/>
<polygon fill="#000000" stroke="#000000" points="764.973,-884.1741 760.4894,-893.7735 769.9807,-889.0653 764.973,-884.1741"/>
</g>
<!-- GO:0044260 -->
<g id="node17" class="node">
<title>GO:0044260</title>
<polygon fill="#ffa500" stroke="#000000" points="548.115,-446.6014 400.5702,-446.6014 400.5702,-387.7986 548.115,-387.7986 548.115,-446.6014"/>
<text text-anchor="middle" x="474.3426" y="-429.8" font-family="Times,serif" font-size="14.00" fill="#000000">GO:0044260</text>
<text text-anchor="middle" x="474.3426" y="-413" font-family="Times,serif" font-size="14.00" fill="#000000">cellular macromolecule</text>
<text text-anchor="middle" x="474.3426" y="-396.2" font-family="Times,serif" font-size="14.00" fill="#000000">metabolic process</text>
</g>
<!-- GO:0044260&#45;&gt;GO:0043170 -->
<g id="edge23" class="edge">
<title>GO:0044260&#45;&gt;GO:0043170</title>
<path fill="none" stroke="#000000" d="M400.217,-443.5673C397.225,-444.5398 394.2583,-445.4877 391.3426,-446.4 333.7168,-464.4303 317.3874,-462.6081 260.3426,-482.4 256.1283,-483.8622 251.8291,-485.4263 247.5082,-487.0555"/>
<polygon fill="#000000" stroke="#000000" points="246.1069,-483.8446 238.0387,-490.7115 248.6282,-490.3748 246.1069,-483.8446"/>
</g>
<!-- GO:0044260&#45;&gt;GO:0044237 -->
<g id="edge22" class="edge">
<title>GO:0044260&#45;&gt;GO:0044237</title>
<path fill="none" stroke="#000000" d="M548.2516,-445.9235C608.3873,-473.7151 689.1641,-522.1929 726.3426,-593.6 741.7773,-623.2448 746.1094,-641.8497 726.3426,-668.8 709.5863,-691.6457 641.0798,-710.1506 587.4081,-721.5306"/>
<polygon fill="#000000" stroke="#000000" points="586.6547,-718.1123 577.5749,-723.572 588.0776,-724.9662 586.6547,-718.1123"/>
</g>
<!-- GO:0065007 -->
<g id="node18" class="node">
<title>GO:0065007</title>
<polygon fill="#ff00ff" stroke="#000000" points="1050.596,-849.0019 918.0892,-849.0019 918.0892,-807.7981 1050.596,-807.7981 1050.596,-849.0019"/>
<text text-anchor="middle" x="984.3426" y="-832.6" font-family="Times,serif" font-size="14.00" fill="#000000">GO:0065007</text>
<text text-anchor="middle" x="984.3426" y="-815.8" font-family="Times,serif" font-size="14.00" fill="#000000">biological regulation</text>
</g>
<!-- GO:0065007&#45;&gt;GO:0008150 -->
<g id="edge25" class="edge">
<title>GO:0065007&#45;&gt;GO:0008150</title>
<path fill="none" stroke="#000000" d="M932.0091,-849.1368C924.4259,-852.0362 916.699,-854.9334 909.3426,-857.6 877.176,-869.26 841.2794,-881.4404 810.8711,-891.5181"/>
<polygon fill="#000000" stroke="#000000" points="809.5996,-888.252 801.2027,-894.7128 811.7959,-894.8985 809.5996,-888.252"/>
</g>
<!-- GO:0006400 -->
<g id="node19" class="node">
<title>GO:0006400</title>
<polygon fill="#ff00ff" stroke="#000000" points="382.8267,-41.4019 257.8585,-41.4019 257.8585,-.1981 382.8267,-.1981 382.8267,-41.4019"/>
<text text-anchor="middle" x="320.3426" y="-25" font-family="Times,serif" font-size="14.00" fill="#000000">GO:0006400</text>
<text text-anchor="middle" x="320.3426" y="-8.2" font-family="Times,serif" font-size="14.00" fill="#000000">tRNA modification</text>
</g>
<!-- GO:0008033 -->
<g id="node20" class="node">
<title>GO:0008033</title>
<polygon fill="#ffffff" stroke="#000000" points="442.6528,-119.0019 330.0324,-119.0019 330.0324,-77.7981 442.6528,-77.7981 442.6528,-119.0019"/>
<text text-anchor="middle" x="386.3426" y="-102.6" font-family="Times,serif" font-size="14.00" fill="#000000">GO:0008033</text>
<text text-anchor="middle" x="386.3426" y="-85.8" font-family="Times,serif" font-size="14.00" fill="#000000">tRNA processing</text>
</g>
<!-- GO:0006400&#45;&gt;GO:0008033 -->
<g id="edge26" class="edge">
<title>GO:0006400&#45;&gt;GO:0008033</title>
<path fill="none" stroke="#000000" d="M338.0294,-41.5954C345.4275,-50.2937 354.1449,-60.5433 362.1237,-69.9244"/>
<polygon fill="#000000" stroke="#000000" points="359.4621,-72.1973 368.607,-77.5472 364.7943,-67.6622 359.4621,-72.1973"/>
</g>
<!-- GO:0009451 -->
<g id="node21" class="node">
<title>GO:0009451</title>
<polygon fill="#ffffff" stroke="#000000" points="302.4359,-274.2019 182.2493,-274.2019 182.2493,-232.9981 302.4359,-232.9981 302.4359,-274.2019"/>
<text text-anchor="middle" x="242.3426" y="-257.8" font-family="Times,serif" font-size="14.00" fill="#000000">GO:0009451</text>
<text text-anchor="middle" x="242.3426" y="-241" font-family="Times,serif" font-size="14.00" fill="#000000">RNA modification</text>
</g>
<!-- GO:0006400&#45;&gt;GO:0009451 -->
<g id="edge27" class="edge">
<title>GO:0006400&#45;&gt;GO:0009451</title>
<path fill="none" stroke="#000000" d="M313.4206,-41.4594C299.6017,-82.7036 268.5427,-175.4027 252.4454,-223.4471"/>
<polygon fill="#000000" stroke="#000000" points="249.1074,-222.393 249.2491,-232.9869 255.7447,-224.6169 249.1074,-222.393"/>
</g>
<!-- GO:0006399 -->
<g id="node22" class="node">
<title>GO:0006399</title>
<polygon fill="#ffffff" stroke="#000000" points="462.9687,-196.6019 309.7165,-196.6019 309.7165,-155.3981 462.9687,-155.3981 462.9687,-196.6019"/>
<text text-anchor="middle" x="386.3426" y="-180.2" font-family="Times,serif" font-size="14.00" fill="#000000">GO:0006399</text>
<text text-anchor="middle" x="386.3426" y="-163.4" font-family="Times,serif" font-size="14.00" fill="#000000">tRNA metabolic process</text>
</g>
<!-- GO:0008033&#45;&gt;GO:0006399 -->
<g id="edge28" class="edge">
<title>GO:0008033&#45;&gt;GO:0006399</title>
<path fill="none" stroke="#000000" d="M386.3426,-119.1954C386.3426,-127.1109 386.3426,-136.3109 386.3426,-144.9722"/>
<polygon fill="#000000" stroke="#000000" points="382.8427,-145.1472 386.3426,-155.1472 389.8427,-145.1473 382.8427,-145.1472"/>
</g>
<!-- GO:0034470 -->
<g id="node23" class="node">
<title>GO:0034470</title>
<polygon fill="#ffffff" stroke="#000000" points="603.4767,-196.6019 481.2085,-196.6019 481.2085,-155.3981 603.4767,-155.3981 603.4767,-196.6019"/>
<text text-anchor="middle" x="542.3426" y="-180.2" font-family="Times,serif" font-size="14.00" fill="#000000">GO:0034470</text>
<text text-anchor="middle" x="542.3426" y="-163.4" font-family="Times,serif" font-size="14.00" fill="#000000">ncRNA processing</text>
</g>
<!-- GO:0008033&#45;&gt;GO:0034470 -->
<g id="edge29" class="edge">
<title>GO:0008033&#45;&gt;GO:0034470</title>
<path fill="none" stroke="#000000" d="M428.1477,-119.1954C447.6358,-128.8895 470.9972,-140.5102 491.4986,-150.7084"/>
<polygon fill="#000000" stroke="#000000" points="490.1805,-153.9618 500.6928,-155.2819 493.2982,-147.6944 490.1805,-153.9618"/>
</g>
<!-- GO:0016070 -->
<g id="node24" class="node">
<title>GO:0016070</title>
<polygon fill="#ff00ff" stroke="#000000" points="549.0778,-351.8019 399.6074,-351.8019 399.6074,-310.5981 549.0778,-310.5981 549.0778,-351.8019"/>
<text text-anchor="middle" x="474.3426" y="-335.4" font-family="Times,serif" font-size="14.00" fill="#000000">GO:0016070</text>
<text text-anchor="middle" x="474.3426" y="-318.6" font-family="Times,serif" font-size="14.00" fill="#000000">RNA metabolic process</text>
</g>
<!-- GO:0009451&#45;&gt;GO:0016070 -->
<g id="edge30" class="edge">
<title>GO:0009451&#45;&gt;GO:0016070</title>
<path fill="none" stroke="#000000" d="M302.6922,-273.7859C333.3536,-284.0416 370.8132,-296.5712 402.906,-307.3057"/>
<polygon fill="#000000" stroke="#000000" points="402.0863,-310.7221 412.6801,-310.575 404.3068,-304.0836 402.0863,-310.7221"/>
</g>
<!-- GO:0043412 -->
<g id="node25" class="node">
<title>GO:0043412</title>
<polygon fill="#ff00ff" stroke="#000000" points="222.639,-446.6014 120.0462,-446.6014 120.0462,-387.7986 222.639,-387.7986 222.639,-446.6014"/>
<text text-anchor="middle" x="171.3426" y="-429.8" font-family="Times,serif" font-size="14.00" fill="#000000">GO:0043412</text>
<text text-anchor="middle" x="171.3426" y="-413" font-family="Times,serif" font-size="14.00" fill="#000000">macromolecule</text>
<text text-anchor="middle" x="171.3426" y="-396.2" font-family="Times,serif" font-size="14.00" fill="#000000">modification</text>
</g>
<!-- GO:0009451&#45;&gt;GO:0043412 -->
<g id="edge31" class="edge">
<title>GO:0009451&#45;&gt;GO:0043412</title>
<path fill="none" stroke="#000000" d="M233.3504,-274.3201C222.007,-300.4577 202.2745,-345.9259 188.1135,-378.5561"/>
<polygon fill="#000000" stroke="#000000" points="184.8667,-377.2461 184.0962,-387.8129 191.288,-380.0329 184.8667,-377.2461"/>
</g>
<!-- GO:0034660 -->
<g id="node26" class="node">
<title>GO:0034660</title>
<polygon fill="#ffffff" stroke="#000000" points="483.7922,-274.2019 320.893,-274.2019 320.893,-232.9981 483.7922,-232.9981 483.7922,-274.2019"/>
<text text-anchor="middle" x="402.3426" y="-257.8" font-family="Times,serif" font-size="14.00" fill="#000000">GO:0034660</text>
<text text-anchor="middle" x="402.3426" y="-241" font-family="Times,serif" font-size="14.00" fill="#000000">ncRNA metabolic process</text>
</g>
<!-- GO:0006399&#45;&gt;GO:0034660 -->
<g id="edge32" class="edge">
<title>GO:0006399&#45;&gt;GO:0034660</title>
<path fill="none" stroke="#000000" d="M390.6303,-196.7954C392.2803,-204.7978 394.201,-214.1133 396.0039,-222.8575"/>
<polygon fill="#000000" stroke="#000000" points="392.5957,-223.66 398.0431,-232.7472 399.4515,-222.2464 392.5957,-223.66"/>
</g>
<!-- GO:0034470&#45;&gt;GO:0034660 -->
<g id="edge33" class="edge">
<title>GO:0034470&#45;&gt;GO:0034660</title>
<path fill="none" stroke="#000000" d="M504.8252,-196.7954C487.7199,-206.2766 467.2897,-217.6008 449.1876,-227.6345"/>
<polygon fill="#000000" stroke="#000000" points="447.0131,-224.838 439.9636,-232.7472 450.4067,-230.9604 447.0131,-224.838"/>
</g>
<!-- GO:0006396 -->
<g id="node27" class="node">
<title>GO:0006396</title>
<polygon fill="#ffffff" stroke="#000000" points="610.762,-274.2019 501.9232,-274.2019 501.9232,-232.9981 610.762,-232.9981 610.762,-274.2019"/>
<text text-anchor="middle" x="556.3426" y="-257.8" font-family="Times,serif" font-size="14.00" fill="#000000">GO:0006396</text>
<text text-anchor="middle" x="556.3426" y="-241" font-family="Times,serif" font-size="14.00" fill="#000000">RNA processing</text>
</g>
<!-- GO:0034470&#45;&gt;GO:0006396 -->
<g id="edge34" class="edge">
<title>GO:0034470&#45;&gt;GO:0006396</title>
<path fill="none" stroke="#000000" d="M546.0943,-196.7954C547.5381,-204.7978 549.2187,-214.1133 550.7963,-222.8575"/>
<polygon fill="#000000" stroke="#000000" points="547.3606,-223.5275 552.5805,-232.7472 554.2494,-222.2847 547.3606,-223.5275"/>
</g>
<!-- GO:0016070&#45;&gt;GO:0090304 -->
<g id="edge35" class="edge">
<title>GO:0016070&#45;&gt;GO:0090304</title>
<path fill="none" stroke="#000000" d="M434.8848,-352.0182C417.1547,-361.3728 395.7689,-372.6561 375.8097,-383.1867"/>
<polygon fill="#000000" stroke="#000000" points="373.9692,-380.2004 366.758,-387.9624 377.2357,-386.3916 373.9692,-380.2004"/>
</g>
<!-- GO:0016070&#45;&gt;GO:0044260 -->
<g id="edge36" class="edge">
<title>GO:0016070&#45;&gt;GO:0044260</title>
<path fill="none" stroke="#000000" d="M474.3426,-352.0182C474.3426,-359.7358 474.3426,-368.7662 474.3426,-377.6036"/>
<polygon fill="#000000" stroke="#000000" points="470.8427,-377.7991 474.3426,-387.7991 477.8427,-377.7992 470.8427,-377.7991"/>
</g>
<!-- GO:0043412&#45;&gt;GO:0043170 -->
<g id="edge37" class="edge">
<title>GO:0043412&#45;&gt;GO:0043170</title>
<path fill="none" stroke="#000000" d="M171.3426,-446.6584C171.3426,-457.1969 171.3426,-469.2505 171.3426,-480.4994"/>
<polygon fill="#000000" stroke="#000000" points="167.8427,-480.5373 171.3426,-490.5373 174.8427,-480.5374 167.8427,-480.5373"/>
</g>
<!-- GO:0034660&#45;&gt;GO:0016070 -->
<g id="edge38" class="edge">
<title>GO:0034660&#45;&gt;GO:0016070</title>
<path fill="none" stroke="#000000" d="M421.6373,-274.3954C429.7886,-283.1807 439.4081,-293.5484 448.1828,-303.0056"/>
<polygon fill="#000000" stroke="#000000" points="445.6273,-305.3971 454.9947,-310.3472 450.7587,-300.636 445.6273,-305.3971"/>
</g>
<!-- GO:0006396&#45;&gt;GO:0016070 -->
<g id="edge39" class="edge">
<title>GO:0006396&#45;&gt;GO:0016070</title>
<path fill="none" stroke="#000000" d="M534.3681,-274.3954C524.9927,-283.2677 513.912,-293.7539 503.8391,-303.2862"/>
<polygon fill="#000000" stroke="#000000" points="501.2353,-300.9315 496.3778,-310.3472 506.0468,-306.0158 501.2353,-300.9315"/>
</g>
<!-- GO:0044763 -->
<g id="node28" class="node">
<title>GO:0044763</title>
<polygon fill="#ff00ff" stroke="#000000" points="824.0211,-763.4014 672.6641,-763.4014 672.6641,-704.5986 824.0211,-704.5986 824.0211,-763.4014"/>
<text text-anchor="middle" x="748.3426" y="-746.6" font-family="Times,serif" font-size="14.00" fill="#000000">GO:0044763</text>
<text text-anchor="middle" x="748.3426" y="-729.8" font-family="Times,serif" font-size="14.00" fill="#000000">single&#45;organism cellular</text>
<text text-anchor="middle" x="748.3426" y="-713" font-family="Times,serif" font-size="14.00" fill="#000000">process</text>
</g>
<!-- GO:0044763&#45;&gt;GO:0009987 -->
<g id="edge40" class="edge">
<title>GO:0044763&#45;&gt;GO:0009987</title>
<path fill="none" stroke="#000000" d="M672.3424,-760.5086C641.3692,-771.7786 605.3798,-785.474 573.3426,-799.2 570.158,-800.5644 566.8987,-802.0085 563.6254,-803.4951"/>
<polygon fill="#000000" stroke="#000000" points="562.0145,-800.3841 554.4148,-807.7662 564.9593,-806.7345 562.0145,-800.3841"/>
</g>
<!-- GO:0044763&#45;&gt;GO:0044699 -->
<g id="edge41" class="edge">
<title>GO:0044763&#45;&gt;GO:0044699</title>
<path fill="none" stroke="#000000" d="M771.9729,-763.3513C781.2998,-774.9363 791.9812,-788.2037 801.2544,-799.722"/>
<polygon fill="#000000" stroke="#000000" points="798.721,-802.1565 807.7184,-807.751 804.1736,-797.7667 798.721,-802.1565"/>
</g>
<!-- GO:0050896 -->
<g id="node29" class="node">
<title>GO:0050896</title>
<polygon fill="#ff00ff" stroke="#000000" points="1198.6642,-849.0019 1068.021,-849.0019 1068.021,-807.7981 1198.6642,-807.7981 1198.6642,-849.0019"/>
<text text-anchor="middle" x="1133.3426" y="-832.6" font-family="Times,serif" font-size="14.00" fill="#000000">GO:0050896</text>
<text text-anchor="middle" x="1133.3426" y="-815.8" font-family="Times,serif" font-size="14.00" fill="#000000">response to stimulus</text>
</g>
<!-- GO:0050896&#45;&gt;GO:0008150 -->
<g id="edge42" class="edge">
<title>GO:0050896&#45;&gt;GO:0008150</title>
<path fill="none" stroke="#000000" d="M1084.8564,-849.1217C1076.4472,-852.2561 1067.7143,-855.2287 1059.3426,-857.6 975.4726,-881.3565 876.2551,-897.1645 811.0004,-905.9422"/>
<polygon fill="#000000" stroke="#000000" points="810.28,-902.507 800.8266,-907.2907 811.1998,-909.4463 810.28,-902.507"/>
</g>
<!-- GO:0006259 -->
<g id="node30" class="node">
<title>GO:0006259</title>
<polygon fill="#ff00ff" stroke="#000000" points="381.3484,-351.8019 231.3368,-351.8019 231.3368,-310.5981 381.3484,-310.5981 381.3484,-351.8019"/>
<text text-anchor="middle" x="306.3426" y="-335.4" font-family="Times,serif" font-size="14.00" fill="#000000">GO:0006259</text>
<text text-anchor="middle" x="306.3426" y="-318.6" font-family="Times,serif" font-size="14.00" fill="#000000">DNA metabolic process</text>
</g>
<!-- GO:0006259&#45;&gt;GO:0090304 -->
<g id="edge43" class="edge">
<title>GO:0006259&#45;&gt;GO:0090304</title>
<path fill="none" stroke="#000000" d="M307.553,-352.0182C308.0017,-359.7358 308.5267,-368.7662 309.0405,-377.6036"/>
<polygon fill="#000000" stroke="#000000" points="305.5586,-378.0192 309.6332,-387.7991 312.5468,-377.6128 305.5586,-378.0192"/>
</g>
<!-- GO:0006259&#45;&gt;GO:0044260 -->
<g id="edge44" class="edge">
<title>GO:0006259&#45;&gt;GO:0044260</title>
<path fill="none" stroke="#000000" d="M347.0107,-352.0182C365.3671,-361.4149 387.5252,-372.7578 408.1758,-383.3289"/>
<polygon fill="#000000" stroke="#000000" points="406.731,-386.5212 417.2274,-387.9624 409.9208,-380.2902 406.731,-386.5212"/>
</g>
</g>
</svg>
