<?xml version="1.0" encoding="UTF-8" standalone="no"?>
<!DOCTYPE svg PUBLIC "-//W3C//DTD SVG 1.1//EN"
 "http://www.w3.org/Graphics/SVG/1.1/DTD/svg11.dtd">
<!-- Generated by graphviz version 2.40.1 (20161225.0304)
 -->
<!-- Title: G Pages: 1 -->
<svg width="677pt" height="599pt"
 viewBox="0.00 0.00 677.01 599.20" xmlns="http://www.w3.org/2000/svg" xmlns:xlink="http://www.w3.org/1999/xlink">
<g id="graph0" class="graph" transform="scale(1 1) rotate(0) translate(4 595.2)">
<title>G</title>
<polygon fill="#ffffff" stroke="transparent" points="-4,4 -4,-595.2 673.0064,-595.2 673.0064,4 -4,4"/>
<!-- GO:0043169 -->
<g id="node1" class="node">
<title>GO:0043169</title>
<polygon fill="#ffffff" stroke="#000000" points="109.4435,-349.8019 12.4577,-349.8019 12.4577,-308.5981 109.4435,-308.5981 109.4435,-349.8019"/>
<text text-anchor="middle" x="60.9506" y="-333.4" font-family="Times,serif" font-size="14.00" fill="#000000">GO:0043169</text>
<text text-anchor="middle" x="60.9506" y="-316.6" font-family="Times,serif" font-size="14.00" fill="#000000">cation binding</text>
</g>
<!-- GO:0043167 -->
<g id="node2" class="node">
<title>GO:0043167</title>
<polygon fill="#ffffff" stroke="#000000" points="122.5545,-435.8019 33.3467,-435.8019 33.3467,-394.5981 122.5545,-394.5981 122.5545,-435.8019"/>
<text text-anchor="middle" x="77.9506" y="-419.4" font-family="Times,serif" font-size="14.00" fill="#000000">GO:0043167</text>
<text text-anchor="middle" x="77.9506" y="-402.6" font-family="Times,serif" font-size="14.00" fill="#000000">ion binding</text>
</g>
<!-- GO:0043169&#45;&gt;GO:0043167 -->
<g id="edge1" class="edge">
<title>GO:0043169&#45;&gt;GO:0043167</title>
<path fill="none" stroke="#000000" d="M65.0658,-350.0182C67.1122,-360.3705 69.6255,-373.0848 71.8874,-384.5271"/>
<polygon fill="#000000" stroke="#000000" points="68.5004,-385.4421 73.8733,-394.5735 75.3675,-384.0846 68.5004,-385.4421"/>
</g>
<!-- GO:0005488 -->
<g id="node3" class="node">
<title>GO:0005488</title>
<polygon fill="#ffffff" stroke="#000000" points="260.5545,-513.4019 171.3467,-513.4019 171.3467,-472.1981 260.5545,-472.1981 260.5545,-513.4019"/>
<text text-anchor="middle" x="215.9506" y="-497" font-family="Times,serif" font-size="14.00" fill="#000000">GO:0005488</text>
<text text-anchor="middle" x="215.9506" y="-480.2" font-family="Times,serif" font-size="14.00" fill="#000000">binding</text>
</g>
<!-- GO:0043167&#45;&gt;GO:0005488 -->
<g id="edge2" class="edge">
<title>GO:0043167&#45;&gt;GO:0005488</title>
<path fill="none" stroke="#000000" d="M114.9321,-435.9954C131.7929,-445.4766 151.9313,-456.8008 169.7748,-466.8345"/>
<polygon fill="#000000" stroke="#000000" points="168.4351,-470.0965 178.8671,-471.9472 171.8661,-463.995 168.4351,-470.0965"/>
</g>
<!-- GO:0003674 -->
<g id="node4" class="node">
<title>GO:0003674</title>
<polygon fill="#ffffff" stroke="#000000" points="351.5837,-591.0019 226.3175,-591.0019 226.3175,-549.7981 351.5837,-549.7981 351.5837,-591.0019"/>
<text text-anchor="middle" x="288.9506" y="-574.6" font-family="Times,serif" font-size="14.00" fill="#000000">GO:0003674</text>
<text text-anchor="middle" x="288.9506" y="-557.8" font-family="Times,serif" font-size="14.00" fill="#000000">molecular_function</text>
</g>
<!-- GO:0005488&#45;&gt;GO:0003674 -->
<g id="edge3" class="edge">
<title>GO:0005488&#45;&gt;GO:0003674</title>
<path fill="none" stroke="#000000" d="M235.5133,-513.5954C243.7778,-522.3807 253.5309,-532.7484 262.4275,-542.2056"/>
<polygon fill="#000000" stroke="#000000" points="259.9327,-544.6617 269.3339,-549.5472 265.0313,-539.8654 259.9327,-544.6617"/>
</g>
<!-- GO:0051540 -->
<g id="node5" class="node">
<title>GO:0051540</title>
<polygon fill="#ffffff" stroke="#000000" points="283.1485,-435.8019 148.7527,-435.8019 148.7527,-394.5981 283.1485,-394.5981 283.1485,-435.8019"/>
<text text-anchor="middle" x="215.9506" y="-419.4" font-family="Times,serif" font-size="14.00" fill="#000000">GO:0051540</text>
<text text-anchor="middle" x="215.9506" y="-402.6" font-family="Times,serif" font-size="14.00" fill="#000000">metal cluster binding</text>
</g>
<!-- GO:0051540&#45;&gt;GO:0005488 -->
<g id="edge4" class="edge">
<title>GO:0051540&#45;&gt;GO:0005488</title>
<path fill="none" stroke="#000000" d="M215.9506,-435.9954C215.9506,-443.9109 215.9506,-453.1109 215.9506,-461.7722"/>
<polygon fill="#000000" stroke="#000000" points="212.4507,-461.9472 215.9506,-471.9472 219.4507,-461.9473 212.4507,-461.9472"/>
</g>
<!-- GO:0016787 -->
<g id="node6" class="node">
<title>GO:0016787</title>
<polygon fill="#ffa500" stroke="#000000" points="420.8672,-435.8019 305.034,-435.8019 305.034,-394.5981 420.8672,-394.5981 420.8672,-435.8019"/>
<text text-anchor="middle" x="362.9506" y="-419.4" font-family="Times,serif" font-size="14.00" fill="#000000">GO:0016787</text>
<text text-anchor="middle" x="362.9506" y="-402.6" font-family="Times,serif" font-size="14.00" fill="#000000">hydrolase activity</text>
</g>
<!-- GO:0003824 -->
<g id="node7" class="node">
<title>GO:0003824</title>
<polygon fill="#ff0000" stroke="#000000" points="477.363,-513.4019 368.5382,-513.4019 368.5382,-472.1981 477.363,-472.1981 477.363,-513.4019"/>
<text text-anchor="middle" x="422.9506" y="-497" font-family="Times,serif" font-size="14.00" fill="#000000">GO:0003824</text>
<text text-anchor="middle" x="422.9506" y="-480.2" font-family="Times,serif" font-size="14.00" fill="#000000">catalytic activity</text>
</g>
<!-- GO:0016787&#45;&gt;GO:0003824 -->
<g id="edge5" class="edge">
<title>GO:0016787&#45;&gt;GO:0003824</title>
<path fill="none" stroke="#000000" d="M379.0295,-435.9954C385.6205,-444.5197 393.3634,-454.5339 400.4974,-463.7605"/>
<polygon fill="#000000" stroke="#000000" points="397.9416,-466.177 406.8273,-471.9472 403.4794,-461.8953 397.9416,-466.177"/>
</g>
<!-- GO:0003824&#45;&gt;GO:0003674 -->
<g id="edge6" class="edge">
<title>GO:0003824&#45;&gt;GO:0003674</title>
<path fill="none" stroke="#000000" d="M387.0411,-513.5954C370.6689,-523.0766 351.1143,-534.4008 333.788,-544.4345"/>
<polygon fill="#000000" stroke="#000000" points="331.8589,-541.507 324.9593,-549.5472 335.367,-547.5646 331.8589,-541.507"/>
</g>
<!-- GO:0016835 -->
<g id="node8" class="node">
<title>GO:0016835</title>
<polygon fill="#ffffff" stroke="#000000" points="585.1802,-358.6014 452.721,-358.6014 452.721,-299.7986 585.1802,-299.7986 585.1802,-358.6014"/>
<text text-anchor="middle" x="518.9506" y="-341.8" font-family="Times,serif" font-size="14.00" fill="#000000">GO:0016835</text>
<text text-anchor="middle" x="518.9506" y="-325" font-family="Times,serif" font-size="14.00" fill="#000000">carbon&#45;oxygen lyase</text>
<text text-anchor="middle" x="518.9506" y="-308.2" font-family="Times,serif" font-size="14.00" fill="#000000">activity</text>
</g>
<!-- GO:0016829 -->
<g id="node9" class="node">
<title>GO:0016829</title>
<polygon fill="#ffffff" stroke="#000000" points="529.207,-435.8019 438.6942,-435.8019 438.6942,-394.5981 529.207,-394.5981 529.207,-435.8019"/>
<text text-anchor="middle" x="483.9506" y="-419.4" font-family="Times,serif" font-size="14.00" fill="#000000">GO:0016829</text>
<text text-anchor="middle" x="483.9506" y="-402.6" font-family="Times,serif" font-size="14.00" fill="#000000">lyase activity</text>
</g>
<!-- GO:0016835&#45;&gt;GO:0016829 -->
<g id="edge7" class="edge">
<title>GO:0016835&#45;&gt;GO:0016829</title>
<path fill="none" stroke="#000000" d="M506.9056,-358.7963C503.4288,-367.3393 499.6328,-376.6667 496.1469,-385.2321"/>
<polygon fill="#000000" stroke="#000000" points="492.9042,-383.9149 492.3764,-394.4966 499.3878,-386.5536 492.9042,-383.9149"/>
</g>
<!-- GO:0016829&#45;&gt;GO:0003824 -->
<g id="edge8" class="edge">
<title>GO:0016829&#45;&gt;GO:0003824</title>
<path fill="none" stroke="#000000" d="M467.6037,-435.9954C460.8345,-444.6067 452.8701,-454.7384 445.5562,-464.0427"/>
<polygon fill="#000000" stroke="#000000" points="442.771,-461.9224 439.3426,-471.9472 448.2743,-466.2484 442.771,-461.9224"/>
</g>
<!-- GO:0016799 -->
<g id="node10" class="node">
<title>GO:0016799</title>
<polygon fill="#00ff00" stroke="#000000" points="279.815,-264.1003 130.0862,-264.1003 130.0862,-188.6997 279.815,-188.6997 279.815,-264.1003"/>
<text text-anchor="middle" x="204.9506" y="-247.4" font-family="Times,serif" font-size="14.00" fill="#000000">GO:0016799</text>
<text text-anchor="middle" x="204.9506" y="-230.6" font-family="Times,serif" font-size="14.00" fill="#000000">hydrolase activity,</text>
<text text-anchor="middle" x="204.9506" y="-213.8" font-family="Times,serif" font-size="14.00" fill="#000000">hydrolyzing N&#45;glycosyl</text>
<text text-anchor="middle" x="204.9506" y="-197" font-family="Times,serif" font-size="14.00" fill="#000000">compounds</text>
</g>
<!-- GO:0016798 -->
<g id="node11" class="node">
<title>GO:0016798</title>
<polygon fill="#ffffff" stroke="#000000" points="282.5465,-358.6014 127.3547,-358.6014 127.3547,-299.7986 282.5465,-299.7986 282.5465,-358.6014"/>
<text text-anchor="middle" x="204.9506" y="-341.8" font-family="Times,serif" font-size="14.00" fill="#000000">GO:0016798</text>
<text text-anchor="middle" x="204.9506" y="-325" font-family="Times,serif" font-size="14.00" fill="#000000">hydrolase activity,</text>
<text text-anchor="middle" x="204.9506" y="-308.2" font-family="Times,serif" font-size="14.00" fill="#000000">acting on glycosyl bonds</text>
</g>
<!-- GO:0016799&#45;&gt;GO:0016798 -->
<g id="edge9" class="edge">
<title>GO:0016799&#45;&gt;GO:0016798</title>
<path fill="none" stroke="#000000" d="M204.9506,-264.0952C204.9506,-272.4874 204.9506,-281.4054 204.9506,-289.8618"/>
<polygon fill="#000000" stroke="#000000" points="201.4507,-289.8813 204.9506,-299.8814 208.4507,-289.8814 201.4507,-289.8813"/>
</g>
<!-- GO:0016798&#45;&gt;GO:0016787 -->
<g id="edge10" class="edge">
<title>GO:0016798&#45;&gt;GO:0016787</title>
<path fill="none" stroke="#000000" d="M258.8833,-358.5558C277.3061,-368.5834 297.758,-379.7154 315.6209,-389.4383"/>
<polygon fill="#000000" stroke="#000000" points="314.2451,-392.6743 324.7016,-394.3809 317.5917,-386.526 314.2451,-392.6743"/>
</g>
<!-- GO:0019104 -->
<g id="node12" class="node">
<title>GO:0019104</title>
<polygon fill="#ffffff" stroke="#000000" points="129.8518,-153.0014 .0494,-153.0014 .0494,-94.1986 129.8518,-94.1986 129.8518,-153.0014"/>
<text text-anchor="middle" x="64.9506" y="-136.2" font-family="Times,serif" font-size="14.00" fill="#000000">GO:0019104</text>
<text text-anchor="middle" x="64.9506" y="-119.4" font-family="Times,serif" font-size="14.00" fill="#000000">DNA N&#45;glycosylase</text>
<text text-anchor="middle" x="64.9506" y="-102.6" font-family="Times,serif" font-size="14.00" fill="#000000">activity</text>
</g>
<!-- GO:0019104&#45;&gt;GO:0016799 -->
<g id="edge11" class="edge">
<title>GO:0019104&#45;&gt;GO:0016799</title>
<path fill="none" stroke="#000000" d="M105.069,-153.0584C117.5817,-162.2462 131.6625,-172.5856 145.2183,-182.5394"/>
<polygon fill="#000000" stroke="#000000" points="143.4401,-185.576 153.5721,-188.6735 147.5832,-179.9337 143.4401,-185.576"/>
</g>
<!-- GO:0004520 -->
<g id="node13" class="node">
<title>GO:0004520</title>
<polygon fill="#ffffff" stroke="#000000" points="510.1247,-58.6014 361.7765,-58.6014 361.7765,.2014 510.1247,.2014 510.1247,-58.6014"/>
<text text-anchor="middle" x="435.9506" y="-41.8" font-family="Times,serif" font-size="14.00" fill="#000000">GO:0004520</text>
<text text-anchor="middle" x="435.9506" y="-25" font-family="Times,serif" font-size="14.00" fill="#000000">endodeoxyribonuclease</text>
<text text-anchor="middle" x="435.9506" y="-8.2" font-family="Times,serif" font-size="14.00" fill="#000000">activity</text>
</g>
<!-- GO:0004536 -->
<g id="node14" class="node">
<title>GO:0004536</title>
<polygon fill="#ffffff" stroke="#000000" points="423.41,-153.0014 302.4912,-153.0014 302.4912,-94.1986 423.41,-94.1986 423.41,-153.0014"/>
<text text-anchor="middle" x="362.9506" y="-136.2" font-family="Times,serif" font-size="14.00" fill="#000000">GO:0004536</text>
<text text-anchor="middle" x="362.9506" y="-119.4" font-family="Times,serif" font-size="14.00" fill="#000000">deoxyribonuclease</text>
<text text-anchor="middle" x="362.9506" y="-102.6" font-family="Times,serif" font-size="14.00" fill="#000000">activity</text>
</g>
<!-- GO:0004520&#45;&gt;GO:0004536 -->
<g id="edge12" class="edge">
<title>GO:0004520&#45;&gt;GO:0004536</title>
<path fill="none" stroke="#000000" d="M413.2531,-58.5513C406.4551,-67.3422 398.9079,-77.1018 391.7711,-86.3308"/>
<polygon fill="#000000" stroke="#000000" points="388.9827,-84.2151 385.6341,-94.2669 394.5202,-88.4973 388.9827,-84.2151"/>
</g>
<!-- GO:0004519 -->
<g id="node15" class="node">
<title>GO:0004519</title>
<polygon fill="#ffffff" stroke="#000000" points="578.3504,-144.2019 441.5508,-144.2019 441.5508,-102.9981 578.3504,-102.9981 578.3504,-144.2019"/>
<text text-anchor="middle" x="509.9506" y="-127.8" font-family="Times,serif" font-size="14.00" fill="#000000">GO:0004519</text>
<text text-anchor="middle" x="509.9506" y="-111" font-family="Times,serif" font-size="14.00" fill="#000000">endonuclease activity</text>
</g>
<!-- GO:0004520&#45;&gt;GO:0004519 -->
<g id="edge13" class="edge">
<title>GO:0004520&#45;&gt;GO:0004519</title>
<path fill="none" stroke="#000000" d="M458.959,-58.5513C468.0405,-70.1363 478.4408,-83.4037 487.47,-94.922"/>
<polygon fill="#000000" stroke="#000000" points="484.8399,-97.2401 493.7639,-102.951 490.349,-92.9215 484.8399,-97.2401"/>
</g>
<!-- GO:0004518 -->
<g id="node16" class="node">
<title>GO:0004518</title>
<polygon fill="#ffffff" stroke="#000000" points="422.6363,-247.0019 313.2649,-247.0019 313.2649,-205.7981 422.6363,-205.7981 422.6363,-247.0019"/>
<text text-anchor="middle" x="367.9506" y="-230.6" font-family="Times,serif" font-size="14.00" fill="#000000">GO:0004518</text>
<text text-anchor="middle" x="367.9506" y="-213.8" font-family="Times,serif" font-size="14.00" fill="#000000">nuclease activity</text>
</g>
<!-- GO:0004536&#45;&gt;GO:0004518 -->
<g id="edge14" class="edge">
<title>GO:0004536&#45;&gt;GO:0004518</title>
<path fill="none" stroke="#000000" d="M364.3834,-153.0584C365.0301,-166.3539 365.794,-182.0608 366.4487,-195.5212"/>
<polygon fill="#000000" stroke="#000000" points="362.9642,-195.9275 366.946,-205.7456 369.956,-195.5874 362.9642,-195.9275"/>
</g>
<!-- GO:0004519&#45;&gt;GO:0004518 -->
<g id="edge15" class="edge">
<title>GO:0004519&#45;&gt;GO:0004518</title>
<path fill="none" stroke="#000000" d="M481.2148,-144.4031C459.1768,-160.3574 428.5973,-182.4952 404.7664,-199.7474"/>
<polygon fill="#000000" stroke="#000000" points="402.6914,-196.9287 396.6437,-205.6278 406.7963,-202.5988 402.6914,-196.9287"/>
</g>
<!-- GO:0016788 -->
<g id="node17" class="node">
<title>GO:0016788</title>
<polygon fill="#ffffff" stroke="#000000" points="435.0313,-358.6014 300.8699,-358.6014 300.8699,-299.7986 435.0313,-299.7986 435.0313,-358.6014"/>
<text text-anchor="middle" x="367.9506" y="-341.8" font-family="Times,serif" font-size="14.00" fill="#000000">GO:0016788</text>
<text text-anchor="middle" x="367.9506" y="-325" font-family="Times,serif" font-size="14.00" fill="#000000">hydrolase activity,</text>
<text text-anchor="middle" x="367.9506" y="-308.2" font-family="Times,serif" font-size="14.00" fill="#000000">acting on ester bonds</text>
</g>
<!-- GO:0004518&#45;&gt;GO:0016788 -->
<g id="edge16" class="edge">
<title>GO:0004518&#45;&gt;GO:0016788</title>
<path fill="none" stroke="#000000" d="M367.9506,-247.2031C367.9506,-259.3833 367.9506,-275.1676 367.9506,-289.6305"/>
<polygon fill="#000000" stroke="#000000" points="364.4507,-289.8577 367.9506,-299.8577 371.4507,-289.8578 364.4507,-289.8577"/>
</g>
<!-- GO:0016788&#45;&gt;GO:0016787 -->
<g id="edge17" class="edge">
<title>GO:0016788&#45;&gt;GO:0016787</title>
<path fill="none" stroke="#000000" d="M366.2299,-358.7963C365.7492,-367.0638 365.2258,-376.0657 364.7412,-384.4008"/>
<polygon fill="#000000" stroke="#000000" points="361.2407,-384.3102 364.1543,-394.4966 368.2289,-384.7166 361.2407,-384.3102"/>
</g>
<!-- GO:0016740 -->
<g id="node18" class="node">
<title>GO:0016740</title>
<polygon fill="#ffffff" stroke="#000000" points="669.0623,-435.8019 546.8389,-435.8019 546.8389,-394.5981 669.0623,-394.5981 669.0623,-435.8019"/>
<text text-anchor="middle" x="607.9506" y="-419.4" font-family="Times,serif" font-size="14.00" fill="#000000">GO:0016740</text>
<text text-anchor="middle" x="607.9506" y="-402.6" font-family="Times,serif" font-size="14.00" fill="#000000">transferase activity</text>
</g>
<!-- GO:0016740&#45;&gt;GO:0003824 -->
<g id="edge18" class="edge">
<title>GO:0016740&#45;&gt;GO:0003824</title>
<path fill="none" stroke="#000000" d="M558.374,-435.9954C534.7426,-445.9078 506.3086,-457.8347 481.6088,-468.1953"/>
<polygon fill="#000000" stroke="#000000" points="480.2108,-464.9862 472.343,-472.0819 482.9185,-471.4413 480.2108,-464.9862"/>
</g>
<!-- GO:0008477 -->
<g id="node19" class="node">
<title>GO:0008477</title>
<polygon fill="#ff00ff" stroke="#000000" points="274.2454,-153.0014 147.6558,-153.0014 147.6558,-94.1986 274.2454,-94.1986 274.2454,-153.0014"/>
<text text-anchor="middle" x="210.9506" y="-136.2" font-family="Times,serif" font-size="14.00" fill="#000000">GO:0008477</text>
<text text-anchor="middle" x="210.9506" y="-119.4" font-family="Times,serif" font-size="14.00" fill="#000000">purine nucleosidase</text>
<text text-anchor="middle" x="210.9506" y="-102.6" font-family="Times,serif" font-size="14.00" fill="#000000">activity</text>
</g>
<!-- GO:0008477&#45;&gt;GO:0016799 -->
<g id="edge19" class="edge">
<title>GO:0008477&#45;&gt;GO:0016799</title>
<path fill="none" stroke="#000000" d="M209.2312,-153.0584C208.7683,-160.9901 208.2553,-169.78 207.7499,-178.4392"/>
<polygon fill="#000000" stroke="#000000" points="204.2522,-178.298 207.1635,-188.485 211.2404,-178.7059 204.2522,-178.298"/>
</g>
</g>
</svg>
