<?xml version="1.0" encoding="UTF-8" standalone="no"?>
<!DOCTYPE svg PUBLIC "-//W3C//DTD SVG 1.1//EN"
 "http://www.w3.org/Graphics/SVG/1.1/DTD/svg11.dtd">
<!-- Generated by graphviz version 2.40.1 (20161225.0304)
 -->
<!-- Title: G Pages: 1 -->
<svg width="625pt" height="599pt"
 viewBox="0.00 0.00 624.55 599.20" xmlns="http://www.w3.org/2000/svg" xmlns:xlink="http://www.w3.org/1999/xlink">
<g id="graph0" class="graph" transform="scale(1 1) rotate(0) translate(4 595.2)">
<title>G</title>
<polygon fill="#ffffff" stroke="transparent" points="-4,4 -4,-595.2 620.553,-595.2 620.553,4 -4,4"/>
<!-- GO:0016787 -->
<g id="node1" class="node">
<title>GO:0016787</title>
<polygon fill="#ffa500" stroke="#000000" points="596.6719,-427.4019 480.8387,-427.4019 480.8387,-386.1981 596.6719,-386.1981 596.6719,-427.4019"/>
<text text-anchor="middle" x="538.7553" y="-411" font-family="Times,serif" font-size="14.00" fill="#000000">GO:0016787</text>
<text text-anchor="middle" x="538.7553" y="-394.2" font-family="Times,serif" font-size="14.00" fill="#000000">hydrolase activity</text>
</g>
<!-- GO:0003824 -->
<g id="node2" class="node">
<title>GO:0003824</title>
<polygon fill="#ff0000" stroke="#000000" points="456.1677,-513.4019 347.3429,-513.4019 347.3429,-472.1981 456.1677,-472.1981 456.1677,-513.4019"/>
<text text-anchor="middle" x="401.7553" y="-497" font-family="Times,serif" font-size="14.00" fill="#000000">GO:0003824</text>
<text text-anchor="middle" x="401.7553" y="-480.2" font-family="Times,serif" font-size="14.00" fill="#000000">catalytic activity</text>
</g>
<!-- GO:0016787&#45;&gt;GO:0003824 -->
<g id="edge1" class="edge">
<title>GO:0016787&#45;&gt;GO:0003824</title>
<path fill="none" stroke="#000000" d="M505.5914,-427.6182C486.8282,-439.3966 463.1941,-454.2326 443.2154,-466.7739"/>
<polygon fill="#000000" stroke="#000000" points="441.2225,-463.8925 434.6138,-472.1735 444.9442,-469.8212 441.2225,-463.8925"/>
</g>
<!-- GO:0003674 -->
<g id="node3" class="node">
<title>GO:0003674</title>
<polygon fill="#ffffff" stroke="#000000" points="387.3884,-591.0019 262.1222,-591.0019 262.1222,-549.7981 387.3884,-549.7981 387.3884,-591.0019"/>
<text text-anchor="middle" x="324.7553" y="-574.6" font-family="Times,serif" font-size="14.00" fill="#000000">GO:0003674</text>
<text text-anchor="middle" x="324.7553" y="-557.8" font-family="Times,serif" font-size="14.00" fill="#000000">molecular_function</text>
</g>
<!-- GO:0003824&#45;&gt;GO:0003674 -->
<g id="edge2" class="edge">
<title>GO:0003824&#45;&gt;GO:0003674</title>
<path fill="none" stroke="#000000" d="M381.1207,-513.5954C372.4033,-522.3807 362.1158,-532.7484 352.7317,-542.2056"/>
<polygon fill="#000000" stroke="#000000" points="350.006,-539.9835 345.4468,-549.5472 354.9749,-544.914 350.006,-539.9835"/>
</g>
<!-- GO:0032356 -->
<g id="node4" class="node">
<title>GO:0032356</title>
<polygon fill="#ffffff" stroke="#000000" points="236.067,-41.4019 91.4436,-41.4019 91.4436,-.1981 236.067,-.1981 236.067,-41.4019"/>
<text text-anchor="middle" x="163.7553" y="-25" font-family="Times,serif" font-size="14.00" fill="#000000">GO:0032356</text>
<text text-anchor="middle" x="163.7553" y="-8.2" font-family="Times,serif" font-size="14.00" fill="#000000">oxidized DNA binding</text>
</g>
<!-- GO:0003684 -->
<g id="node5" class="node">
<title>GO:0003684</title>
<polygon fill="#ffffff" stroke="#000000" points="236.8912,-127.4019 90.6194,-127.4019 90.6194,-86.1981 236.8912,-86.1981 236.8912,-127.4019"/>
<text text-anchor="middle" x="163.7553" y="-111" font-family="Times,serif" font-size="14.00" fill="#000000">GO:0003684</text>
<text text-anchor="middle" x="163.7553" y="-94.2" font-family="Times,serif" font-size="14.00" fill="#000000">damaged DNA binding</text>
</g>
<!-- GO:0032356&#45;&gt;GO:0003684 -->
<g id="edge3" class="edge">
<title>GO:0032356&#45;&gt;GO:0003684</title>
<path fill="none" stroke="#000000" d="M163.7553,-41.6182C163.7553,-51.9705 163.7553,-64.6848 163.7553,-76.1271"/>
<polygon fill="#000000" stroke="#000000" points="160.2554,-76.1735 163.7553,-86.1735 167.2554,-76.1735 160.2554,-76.1735"/>
</g>
<!-- GO:0003677 -->
<g id="node6" class="node">
<title>GO:0003677</title>
<polygon fill="#ffffff" stroke="#000000" points="209.8572,-230.2019 117.6534,-230.2019 117.6534,-188.9981 209.8572,-188.9981 209.8572,-230.2019"/>
<text text-anchor="middle" x="163.7553" y="-213.8" font-family="Times,serif" font-size="14.00" fill="#000000">GO:0003677</text>
<text text-anchor="middle" x="163.7553" y="-197" font-family="Times,serif" font-size="14.00" fill="#000000">DNA binding</text>
</g>
<!-- GO:0003684&#45;&gt;GO:0003677 -->
<g id="edge4" class="edge">
<title>GO:0003684&#45;&gt;GO:0003677</title>
<path fill="none" stroke="#000000" d="M163.7553,-127.6031C163.7553,-142.2337 163.7553,-162.0642 163.7553,-178.5586"/>
<polygon fill="#000000" stroke="#000000" points="160.2554,-178.8278 163.7553,-188.8278 167.2554,-178.8279 160.2554,-178.8278"/>
</g>
<!-- GO:0003676 -->
<g id="node7" class="node">
<title>GO:0003676</title>
<polygon fill="#ffffff" stroke="#000000" points="228.2822,-333.0019 99.2284,-333.0019 99.2284,-291.7981 228.2822,-291.7981 228.2822,-333.0019"/>
<text text-anchor="middle" x="163.7553" y="-316.6" font-family="Times,serif" font-size="14.00" fill="#000000">GO:0003676</text>
<text text-anchor="middle" x="163.7553" y="-299.8" font-family="Times,serif" font-size="14.00" fill="#000000">nucleic acid binding</text>
</g>
<!-- GO:0003677&#45;&gt;GO:0003676 -->
<g id="edge5" class="edge">
<title>GO:0003677&#45;&gt;GO:0003676</title>
<path fill="none" stroke="#000000" d="M163.7553,-230.4031C163.7553,-245.0337 163.7553,-264.8642 163.7553,-281.3586"/>
<polygon fill="#000000" stroke="#000000" points="160.2554,-281.6278 163.7553,-291.6278 167.2554,-281.6279 160.2554,-281.6278"/>
</g>
<!-- GO:0097159 -->
<g id="node8" class="node">
<title>GO:0097159</title>
<polygon fill="#ffffff" stroke="#000000" points="157.2667,-436.2014 .2439,-436.2014 .2439,-377.3986 157.2667,-377.3986 157.2667,-436.2014"/>
<text text-anchor="middle" x="78.7553" y="-419.4" font-family="Times,serif" font-size="14.00" fill="#000000">GO:0097159</text>
<text text-anchor="middle" x="78.7553" y="-402.6" font-family="Times,serif" font-size="14.00" fill="#000000">organic cyclic compound</text>
<text text-anchor="middle" x="78.7553" y="-385.8" font-family="Times,serif" font-size="14.00" fill="#000000">binding</text>
</g>
<!-- GO:0003676&#45;&gt;GO:0097159 -->
<g id="edge6" class="edge">
<title>GO:0003676&#45;&gt;GO:0097159</title>
<path fill="none" stroke="#000000" d="M144.891,-333.3504C135.2513,-344.0562 123.2328,-357.4038 112.0954,-369.7729"/>
<polygon fill="#000000" stroke="#000000" points="109.3943,-367.5421 105.3038,-377.3155 114.5962,-372.2261 109.3943,-367.5421"/>
</g>
<!-- GO:1901363 -->
<g id="node9" class="node">
<title>GO:1901363</title>
<polygon fill="#ffffff" stroke="#000000" points="322.2659,-436.2014 175.2447,-436.2014 175.2447,-377.3986 322.2659,-377.3986 322.2659,-436.2014"/>
<text text-anchor="middle" x="248.7553" y="-419.4" font-family="Times,serif" font-size="14.00" fill="#000000">GO:1901363</text>
<text text-anchor="middle" x="248.7553" y="-402.6" font-family="Times,serif" font-size="14.00" fill="#000000">heterocyclic compound</text>
<text text-anchor="middle" x="248.7553" y="-385.8" font-family="Times,serif" font-size="14.00" fill="#000000">binding</text>
</g>
<!-- GO:0003676&#45;&gt;GO:1901363 -->
<g id="edge7" class="edge">
<title>GO:0003676&#45;&gt;GO:1901363</title>
<path fill="none" stroke="#000000" d="M182.6196,-333.3504C192.2593,-344.0562 204.2778,-357.4038 215.4152,-369.7729"/>
<polygon fill="#000000" stroke="#000000" points="212.9144,-372.2261 222.2068,-377.3155 218.1163,-367.5421 212.9144,-372.2261"/>
</g>
<!-- GO:0005488 -->
<g id="node10" class="node">
<title>GO:0005488</title>
<polygon fill="#ffffff" stroke="#000000" points="293.3592,-513.4019 204.1514,-513.4019 204.1514,-472.1981 293.3592,-472.1981 293.3592,-513.4019"/>
<text text-anchor="middle" x="248.7553" y="-497" font-family="Times,serif" font-size="14.00" fill="#000000">GO:0005488</text>
<text text-anchor="middle" x="248.7553" y="-480.2" font-family="Times,serif" font-size="14.00" fill="#000000">binding</text>
</g>
<!-- GO:0097159&#45;&gt;GO:0005488 -->
<g id="edge8" class="edge">
<title>GO:0097159&#45;&gt;GO:0005488</title>
<path fill="none" stroke="#000000" d="M136.7842,-436.1558C156.962,-446.3634 179.402,-457.7154 198.8632,-467.5605"/>
<polygon fill="#000000" stroke="#000000" points="197.3614,-470.7231 207.8645,-472.1141 200.5213,-464.4768 197.3614,-470.7231"/>
</g>
<!-- GO:1901363&#45;&gt;GO:0005488 -->
<g id="edge9" class="edge">
<title>GO:1901363&#45;&gt;GO:0005488</title>
<path fill="none" stroke="#000000" d="M248.7553,-436.3963C248.7553,-444.6638 248.7553,-453.6657 248.7553,-462.0008"/>
<polygon fill="#000000" stroke="#000000" points="245.2554,-462.0965 248.7553,-472.0966 252.2554,-462.0966 245.2554,-462.0965"/>
</g>
<!-- GO:0005488&#45;&gt;GO:0003674 -->
<g id="edge10" class="edge">
<title>GO:0005488&#45;&gt;GO:0003674</title>
<path fill="none" stroke="#000000" d="M269.1219,-513.5954C277.7261,-522.3807 287.88,-532.7484 297.1422,-542.2056"/>
<polygon fill="#000000" stroke="#000000" points="294.8349,-544.8518 304.3325,-549.5472 299.8359,-539.9539 294.8349,-544.8518"/>
</g>
<!-- GO:0016799 -->
<g id="node11" class="node">
<title>GO:0016799</title>
<polygon fill="#00ff00" stroke="#000000" points="613.6197,-247.3003 463.8909,-247.3003 463.8909,-171.8997 613.6197,-171.8997 613.6197,-247.3003"/>
<text text-anchor="middle" x="538.7553" y="-230.6" font-family="Times,serif" font-size="14.00" fill="#000000">GO:0016799</text>
<text text-anchor="middle" x="538.7553" y="-213.8" font-family="Times,serif" font-size="14.00" fill="#000000">hydrolase activity,</text>
<text text-anchor="middle" x="538.7553" y="-197" font-family="Times,serif" font-size="14.00" fill="#000000">hydrolyzing N&#45;glycosyl</text>
<text text-anchor="middle" x="538.7553" y="-180.2" font-family="Times,serif" font-size="14.00" fill="#000000">compounds</text>
</g>
<!-- GO:0016798 -->
<g id="node12" class="node">
<title>GO:0016798</title>
<polygon fill="#ffffff" stroke="#000000" points="616.3512,-341.8014 461.1594,-341.8014 461.1594,-282.9986 616.3512,-282.9986 616.3512,-341.8014"/>
<text text-anchor="middle" x="538.7553" y="-325" font-family="Times,serif" font-size="14.00" fill="#000000">GO:0016798</text>
<text text-anchor="middle" x="538.7553" y="-308.2" font-family="Times,serif" font-size="14.00" fill="#000000">hydrolase activity,</text>
<text text-anchor="middle" x="538.7553" y="-291.4" font-family="Times,serif" font-size="14.00" fill="#000000">acting on glycosyl bonds</text>
</g>
<!-- GO:0016799&#45;&gt;GO:0016798 -->
<g id="edge11" class="edge">
<title>GO:0016799&#45;&gt;GO:0016798</title>
<path fill="none" stroke="#000000" d="M538.7553,-247.2952C538.7553,-255.6874 538.7553,-264.6054 538.7553,-273.0618"/>
<polygon fill="#000000" stroke="#000000" points="535.2554,-273.0813 538.7553,-283.0814 542.2554,-273.0814 535.2554,-273.0813"/>
</g>
<!-- GO:0016798&#45;&gt;GO:0016787 -->
<g id="edge12" class="edge">
<title>GO:0016798&#45;&gt;GO:0016787</title>
<path fill="none" stroke="#000000" d="M538.7553,-341.7513C538.7553,-352.6614 538.7553,-365.0637 538.7553,-376.092"/>
<polygon fill="#000000" stroke="#000000" points="535.2554,-376.1509 538.7553,-386.151 542.2554,-376.151 535.2554,-376.1509"/>
</g>
<!-- GO:0016740 -->
<g id="node13" class="node">
<title>GO:0016740</title>
<polygon fill="#ffffff" stroke="#000000" points="462.867,-427.4019 340.6436,-427.4019 340.6436,-386.1981 462.867,-386.1981 462.867,-427.4019"/>
<text text-anchor="middle" x="401.7553" y="-411" font-family="Times,serif" font-size="14.00" fill="#000000">GO:0016740</text>
<text text-anchor="middle" x="401.7553" y="-394.2" font-family="Times,serif" font-size="14.00" fill="#000000">transferase activity</text>
</g>
<!-- GO:0016740&#45;&gt;GO:0003824 -->
<g id="edge13" class="edge">
<title>GO:0016740&#45;&gt;GO:0003824</title>
<path fill="none" stroke="#000000" d="M401.7553,-427.6182C401.7553,-437.9705 401.7553,-450.6848 401.7553,-462.1271"/>
<polygon fill="#000000" stroke="#000000" points="398.2554,-462.1735 401.7553,-472.1735 405.2554,-462.1735 398.2554,-462.1735"/>
</g>
<!-- GO:0008477 -->
<g id="node14" class="node">
<title>GO:0008477</title>
<polygon fill="#ff00ff" stroke="#000000" points="602.0501,-136.2014 475.4605,-136.2014 475.4605,-77.3986 602.0501,-77.3986 602.0501,-136.2014"/>
<text text-anchor="middle" x="538.7553" y="-119.4" font-family="Times,serif" font-size="14.00" fill="#000000">GO:0008477</text>
<text text-anchor="middle" x="538.7553" y="-102.6" font-family="Times,serif" font-size="14.00" fill="#000000">purine nucleosidase</text>
<text text-anchor="middle" x="538.7553" y="-85.8" font-family="Times,serif" font-size="14.00" fill="#000000">activity</text>
</g>
<!-- GO:0008477&#45;&gt;GO:0016799 -->
<g id="edge14" class="edge">
<title>GO:0008477&#45;&gt;GO:0016799</title>
<path fill="none" stroke="#000000" d="M538.7553,-136.2584C538.7553,-144.1901 538.7553,-152.98 538.7553,-161.6392"/>
<polygon fill="#000000" stroke="#000000" points="535.2554,-161.6849 538.7553,-171.685 542.2554,-161.685 535.2554,-161.6849"/>
</g>
</g>
</svg>
