<?xml version="1.0" encoding="UTF-8" standalone="no"?>
<!DOCTYPE svg PUBLIC "-//W3C//DTD SVG 1.1//EN"
 "http://www.w3.org/Graphics/SVG/1.1/DTD/svg11.dtd">
<!-- Generated by graphviz version 2.40.1 (20161225.0304)
 -->
<!-- Title: G Pages: 1 -->
<svg width="698pt" height="471pt"
 viewBox="0.00 0.00 698.31 471.20" xmlns="http://www.w3.org/2000/svg" xmlns:xlink="http://www.w3.org/1999/xlink">
<g id="graph0" class="graph" transform="scale(1 1) rotate(0) translate(4 467.2)">
<title>G</title>
<polygon fill="#ffffff" stroke="transparent" points="-4,4 -4,-467.2 694.3139,-467.2 694.3139,4 -4,4"/>
<!-- GO:0032991 -->
<g id="node1" class="node">
<title>GO:0032991</title>
<polygon fill="#ff00ff" stroke="#000000" points="158.5008,-385.4019 .1662,-385.4019 .1662,-344.1981 158.5008,-344.1981 158.5008,-385.4019"/>
<text text-anchor="middle" x="79.3335" y="-369" font-family="Times,serif" font-size="14.00" fill="#000000">GO:0032991</text>
<text text-anchor="middle" x="79.3335" y="-352.2" font-family="Times,serif" font-size="14.00" fill="#000000">macromolecular complex</text>
</g>
<!-- GO:0005575 -->
<g id="node2" class="node">
<title>GO:0005575</title>
<polygon fill="#ffffff" stroke="#000000" points="341.0202,-463.0019 213.6468,-463.0019 213.6468,-421.7981 341.0202,-421.7981 341.0202,-463.0019"/>
<text text-anchor="middle" x="277.3335" y="-446.6" font-family="Times,serif" font-size="14.00" fill="#000000">GO:0005575</text>
<text text-anchor="middle" x="277.3335" y="-429.8" font-family="Times,serif" font-size="14.00" fill="#000000">cellular_component</text>
</g>
<!-- GO:0032991&#45;&gt;GO:0005575 -->
<g id="edge1" class="edge">
<title>GO:0032991&#45;&gt;GO:0005575</title>
<path fill="none" stroke="#000000" d="M132.1338,-385.4934C157.6412,-395.4903 188.4232,-407.5544 215.0684,-417.9971"/>
<polygon fill="#000000" stroke="#000000" points="214.0927,-421.3739 224.6804,-421.7642 216.6471,-414.8565 214.0927,-421.3739"/>
</g>
<!-- GO:0043231 -->
<g id="node3" class="node">
<title>GO:0043231</title>
<polygon fill="#ff0000" stroke="#000000" points="625.7123,-136.2014 474.9547,-136.2014 474.9547,-77.3986 625.7123,-77.3986 625.7123,-136.2014"/>
<text text-anchor="middle" x="550.3335" y="-119.4" font-family="Times,serif" font-size="14.00" fill="#000000">GO:0043231</text>
<text text-anchor="middle" x="550.3335" y="-102.6" font-family="Times,serif" font-size="14.00" fill="#000000">intracellular membrane&#45;</text>
<text text-anchor="middle" x="550.3335" y="-85.8" font-family="Times,serif" font-size="14.00" fill="#000000">bounded organelle</text>
</g>
<!-- GO:0043229 -->
<g id="node4" class="node">
<title>GO:0043229</title>
<polygon fill="#ffffff" stroke="#000000" points="544.0519,-221.8019 404.6151,-221.8019 404.6151,-180.5981 544.0519,-180.5981 544.0519,-221.8019"/>
<text text-anchor="middle" x="474.3335" y="-205.4" font-family="Times,serif" font-size="14.00" fill="#000000">GO:0043229</text>
<text text-anchor="middle" x="474.3335" y="-188.6" font-family="Times,serif" font-size="14.00" fill="#000000">intracellular organelle</text>
</g>
<!-- GO:0043231&#45;&gt;GO:0043229 -->
<g id="edge2" class="edge">
<title>GO:0043231&#45;&gt;GO:0043229</title>
<path fill="none" stroke="#000000" d="M526.7032,-136.1513C517.3763,-147.7363 506.6949,-161.0037 497.4217,-172.522"/>
<polygon fill="#000000" stroke="#000000" points="494.5025,-170.5667 490.9577,-180.551 499.9551,-174.9565 494.5025,-170.5667"/>
</g>
<!-- GO:0043227 -->
<g id="node5" class="node">
<title>GO:0043227</title>
<polygon fill="#ff0000" stroke="#000000" points="690.2943,-230.6014 562.3727,-230.6014 562.3727,-171.7986 690.2943,-171.7986 690.2943,-230.6014"/>
<text text-anchor="middle" x="626.3335" y="-213.8" font-family="Times,serif" font-size="14.00" fill="#000000">GO:0043227</text>
<text text-anchor="middle" x="626.3335" y="-197" font-family="Times,serif" font-size="14.00" fill="#000000">membrane&#45;bounded</text>
<text text-anchor="middle" x="626.3335" y="-180.2" font-family="Times,serif" font-size="14.00" fill="#000000">organelle</text>
</g>
<!-- GO:0043231&#45;&gt;GO:0043227 -->
<g id="edge3" class="edge">
<title>GO:0043231&#45;&gt;GO:0043227</title>
<path fill="none" stroke="#000000" d="M573.9638,-136.1513C581.0412,-144.9422 588.8985,-154.7018 596.3286,-163.9308"/>
<polygon fill="#000000" stroke="#000000" points="593.7205,-166.2724 602.7178,-171.8669 599.173,-161.8826 593.7205,-166.2724"/>
</g>
<!-- GO:0044424 -->
<g id="node6" class="node">
<title>GO:0044424</title>
<polygon fill="#ff0000" stroke="#000000" points="386.7319,-307.8019 277.9351,-307.8019 277.9351,-266.5981 386.7319,-266.5981 386.7319,-307.8019"/>
<text text-anchor="middle" x="332.3335" y="-291.4" font-family="Times,serif" font-size="14.00" fill="#000000">GO:0044424</text>
<text text-anchor="middle" x="332.3335" y="-274.6" font-family="Times,serif" font-size="14.00" fill="#000000">intracellular part</text>
</g>
<!-- GO:0043229&#45;&gt;GO:0044424 -->
<g id="edge4" class="edge">
<title>GO:0043229&#45;&gt;GO:0044424</title>
<path fill="none" stroke="#000000" d="M439.9593,-222.0182C420.4241,-233.8494 395.7948,-248.7657 375.0284,-261.3425"/>
<polygon fill="#000000" stroke="#000000" points="373.1317,-258.3994 366.3912,-266.5735 376.7579,-264.3869 373.1317,-258.3994"/>
</g>
<!-- GO:0043226 -->
<g id="node7" class="node">
<title>GO:0043226</title>
<polygon fill="#ffffff" stroke="#000000" points="518.9374,-307.8019 429.7296,-307.8019 429.7296,-266.5981 518.9374,-266.5981 518.9374,-307.8019"/>
<text text-anchor="middle" x="474.3335" y="-291.4" font-family="Times,serif" font-size="14.00" fill="#000000">GO:0043226</text>
<text text-anchor="middle" x="474.3335" y="-274.6" font-family="Times,serif" font-size="14.00" fill="#000000">organelle</text>
</g>
<!-- GO:0043229&#45;&gt;GO:0043226 -->
<g id="edge5" class="edge">
<title>GO:0043229&#45;&gt;GO:0043226</title>
<path fill="none" stroke="#000000" d="M474.3335,-222.0182C474.3335,-232.3705 474.3335,-245.0848 474.3335,-256.5271"/>
<polygon fill="#000000" stroke="#000000" points="470.8336,-256.5735 474.3335,-266.5735 477.8336,-256.5735 470.8336,-256.5735"/>
</g>
<!-- GO:0043227&#45;&gt;GO:0043226 -->
<g id="edge6" class="edge">
<title>GO:0043227&#45;&gt;GO:0043226</title>
<path fill="none" stroke="#000000" d="M574.4489,-230.5558C556.7256,-240.5834 537.0505,-251.7154 519.8659,-261.4383"/>
<polygon fill="#000000" stroke="#000000" points="518.1099,-258.4103 511.13,-266.3809 521.557,-264.5028 518.1099,-258.4103"/>
</g>
<!-- GO:0044464 -->
<g id="node8" class="node">
<title>GO:0044464</title>
<polygon fill="#ffffff" stroke="#000000" points="376.9374,-385.4019 287.7296,-385.4019 287.7296,-344.1981 376.9374,-344.1981 376.9374,-385.4019"/>
<text text-anchor="middle" x="332.3335" y="-369" font-family="Times,serif" font-size="14.00" fill="#000000">GO:0044464</text>
<text text-anchor="middle" x="332.3335" y="-352.2" font-family="Times,serif" font-size="14.00" fill="#000000">cell part</text>
</g>
<!-- GO:0044424&#45;&gt;GO:0044464 -->
<g id="edge7" class="edge">
<title>GO:0044424&#45;&gt;GO:0044464</title>
<path fill="none" stroke="#000000" d="M332.3335,-307.9954C332.3335,-315.9109 332.3335,-325.1109 332.3335,-333.7722"/>
<polygon fill="#000000" stroke="#000000" points="328.8336,-333.9472 332.3335,-343.9472 335.8336,-333.9473 328.8336,-333.9472"/>
</g>
<!-- GO:0043226&#45;&gt;GO:0005575 -->
<g id="edge8" class="edge">
<title>GO:0043226&#45;&gt;GO:0005575</title>
<path fill="none" stroke="#000000" d="M459.3091,-308.0415C443.1002,-329.4621 415.6468,-362.8141 386.3335,-385.6 370.9101,-397.589 352.5786,-408.267 335.3913,-417.0384"/>
<polygon fill="#000000" stroke="#000000" points="333.3843,-414.1274 325.9862,-421.7116 336.4991,-420.3962 333.3843,-414.1274"/>
</g>
<!-- GO:0044464&#45;&gt;GO:0005575 -->
<g id="edge14" class="edge">
<title>GO:0044464&#45;&gt;GO:0005575</title>
<path fill="none" stroke="#000000" d="M317.5945,-385.5954C311.5528,-394.1197 304.4551,-404.1339 297.9156,-413.3605"/>
<polygon fill="#000000" stroke="#000000" points="295.0402,-411.3647 292.1132,-421.5472 300.7512,-415.4125 295.0402,-411.3647"/>
</g>
<!-- GO:0005634 -->
<g id="node9" class="node">
<title>GO:0005634</title>
<polygon fill="#ffa500" stroke="#000000" points="594.9374,-41.4019 505.7296,-41.4019 505.7296,-.1981 594.9374,-.1981 594.9374,-41.4019"/>
<text text-anchor="middle" x="550.3335" y="-25" font-family="Times,serif" font-size="14.00" fill="#000000">GO:0005634</text>
<text text-anchor="middle" x="550.3335" y="-8.2" font-family="Times,serif" font-size="14.00" fill="#000000">nucleus</text>
</g>
<!-- GO:0005634&#45;&gt;GO:0043231 -->
<g id="edge9" class="edge">
<title>GO:0005634&#45;&gt;GO:0043231</title>
<path fill="none" stroke="#000000" d="M550.3335,-41.6182C550.3335,-49.3358 550.3335,-58.3662 550.3335,-67.2036"/>
<polygon fill="#000000" stroke="#000000" points="546.8336,-67.3991 550.3335,-77.3991 553.8336,-67.3992 546.8336,-67.3991"/>
</g>
<!-- GO:0044446 -->
<g id="node10" class="node">
<title>GO:0044446</title>
<polygon fill="#ff00ff" stroke="#000000" points="260.0519,-230.6014 120.6151,-230.6014 120.6151,-171.7986 260.0519,-171.7986 260.0519,-230.6014"/>
<text text-anchor="middle" x="190.3335" y="-213.8" font-family="Times,serif" font-size="14.00" fill="#000000">GO:0044446</text>
<text text-anchor="middle" x="190.3335" y="-197" font-family="Times,serif" font-size="14.00" fill="#000000">intracellular organelle</text>
<text text-anchor="middle" x="190.3335" y="-180.2" font-family="Times,serif" font-size="14.00" fill="#000000">part</text>
</g>
<!-- GO:0044446&#45;&gt;GO:0044424 -->
<g id="edge10" class="edge">
<title>GO:0044446&#45;&gt;GO:0044424</title>
<path fill="none" stroke="#000000" d="M238.8047,-230.5558C255.21,-240.4914 273.4055,-251.5112 289.3542,-261.1703"/>
<polygon fill="#000000" stroke="#000000" points="287.5911,-264.1943 297.9578,-266.3809 291.2174,-258.2068 287.5911,-264.1943"/>
</g>
<!-- GO:0044422 -->
<g id="node11" class="node">
<title>GO:0044422</title>
<polygon fill="#ffffff" stroke="#000000" points="270.1856,-385.4019 176.4814,-385.4019 176.4814,-344.1981 270.1856,-344.1981 270.1856,-385.4019"/>
<text text-anchor="middle" x="223.3335" y="-369" font-family="Times,serif" font-size="14.00" fill="#000000">GO:0044422</text>
<text text-anchor="middle" x="223.3335" y="-352.2" font-family="Times,serif" font-size="14.00" fill="#000000">organelle part</text>
</g>
<!-- GO:0044446&#45;&gt;GO:0044422 -->
<g id="edge11" class="edge">
<title>GO:0044446&#45;&gt;GO:0044422</title>
<path fill="none" stroke="#000000" d="M196.2332,-230.4484C202.137,-259.717 211.1807,-304.5516 217.1744,-334.266"/>
<polygon fill="#000000" stroke="#000000" points="213.7489,-334.985 219.1572,-344.0955 220.6107,-333.6009 213.7489,-334.985"/>
</g>
<!-- GO:0044422&#45;&gt;GO:0005575 -->
<g id="edge12" class="edge">
<title>GO:0044422&#45;&gt;GO:0005575</title>
<path fill="none" stroke="#000000" d="M237.8045,-385.5954C243.6759,-394.0328 250.5629,-403.9297 256.9289,-413.0778"/>
<polygon fill="#000000" stroke="#000000" points="254.2377,-415.3382 262.8225,-421.5472 259.9835,-411.3398 254.2377,-415.3382"/>
</g>
<!-- GO:0044444 -->
<g id="node12" class="node">
<title>GO:0044444</title>
<polygon fill="#00ff00" stroke="#000000" points="386.7501,-221.8019 277.9169,-221.8019 277.9169,-180.5981 386.7501,-180.5981 386.7501,-221.8019"/>
<text text-anchor="middle" x="332.3335" y="-205.4" font-family="Times,serif" font-size="14.00" fill="#000000">GO:0044444</text>
<text text-anchor="middle" x="332.3335" y="-188.6" font-family="Times,serif" font-size="14.00" fill="#000000">cytoplasmic part</text>
</g>
<!-- GO:0044444&#45;&gt;GO:0044424 -->
<g id="edge13" class="edge">
<title>GO:0044444&#45;&gt;GO:0044424</title>
<path fill="none" stroke="#000000" d="M332.3335,-222.0182C332.3335,-232.3705 332.3335,-245.0848 332.3335,-256.5271"/>
<polygon fill="#000000" stroke="#000000" points="328.8336,-256.5735 332.3335,-266.5735 335.8336,-256.5735 328.8336,-256.5735"/>
</g>
<!-- GO:0044428 -->
<g id="node13" class="node">
<title>GO:0044428</title>
<polygon fill="#ffffff" stroke="#000000" points="234.9374,-127.4019 145.7296,-127.4019 145.7296,-86.1981 234.9374,-86.1981 234.9374,-127.4019"/>
<text text-anchor="middle" x="190.3335" y="-111" font-family="Times,serif" font-size="14.00" fill="#000000">GO:0044428</text>
<text text-anchor="middle" x="190.3335" y="-94.2" font-family="Times,serif" font-size="14.00" fill="#000000">nuclear part</text>
</g>
<!-- GO:0044428&#45;&gt;GO:0044446 -->
<g id="edge15" class="edge">
<title>GO:0044428&#45;&gt;GO:0044446</title>
<path fill="none" stroke="#000000" d="M190.3335,-127.7504C190.3335,-137.7492 190.3335,-150.0525 190.3335,-161.7106"/>
<polygon fill="#000000" stroke="#000000" points="186.8336,-161.7155 190.3335,-171.7155 193.8336,-161.7156 186.8336,-161.7155"/>
</g>
<!-- GO:0005829 -->
<g id="node14" class="node">
<title>GO:0005829</title>
<polygon fill="#ff00ff" stroke="#000000" points="376.9374,-127.4019 287.7296,-127.4019 287.7296,-86.1981 376.9374,-86.1981 376.9374,-127.4019"/>
<text text-anchor="middle" x="332.3335" y="-111" font-family="Times,serif" font-size="14.00" fill="#000000">GO:0005829</text>
<text text-anchor="middle" x="332.3335" y="-94.2" font-family="Times,serif" font-size="14.00" fill="#000000">cytosol</text>
</g>
<!-- GO:0005829&#45;&gt;GO:0044444 -->
<g id="edge16" class="edge">
<title>GO:0005829&#45;&gt;GO:0044444</title>
<path fill="none" stroke="#000000" d="M332.3335,-127.7504C332.3335,-140.2165 332.3335,-156.2645 332.3335,-170.1786"/>
<polygon fill="#000000" stroke="#000000" points="328.8336,-170.3081 332.3335,-180.3081 335.8336,-170.3082 328.8336,-170.3081"/>
</g>
</g>
</svg>
