<?xml version="1.0" encoding="UTF-8" standalone="no"?>
<!DOCTYPE svg PUBLIC "-//W3C//DTD SVG 1.1//EN"
 "http://www.w3.org/Graphics/SVG/1.1/DTD/svg11.dtd">
<!-- Generated by graphviz version 2.40.1 (20161225.0304)
 -->
<!-- Title: G Pages: 1 -->
<svg width="1258pt" height="960pt"
 viewBox="0.00 0.00 1257.54 960.00" xmlns="http://www.w3.org/2000/svg" xmlns:xlink="http://www.w3.org/1999/xlink">
<g id="graph0" class="graph" transform="scale(1 1) rotate(0) translate(4 956)">
<title>G</title>
<polygon fill="#ffffff" stroke="transparent" points="-4,4 -4,-956 1253.5383,-956 1253.5383,4 -4,4"/>
<!-- GO:0019222 -->
<g id="node1" class="node">
<title>GO:0019222</title>
<polygon fill="#ff00ff" stroke="#000000" points="297.8281,-780.2014 151.5703,-780.2014 151.5703,-721.3986 297.8281,-721.3986 297.8281,-780.2014"/>
<text text-anchor="middle" x="224.6992" y="-763.4" font-family="Times,serif" font-size="14.00" fill="#000000">GO:0019222</text>
<text text-anchor="middle" x="224.6992" y="-746.6" font-family="Times,serif" font-size="14.00" fill="#000000">regulation of metabolic</text>
<text text-anchor="middle" x="224.6992" y="-729.8" font-family="Times,serif" font-size="14.00" fill="#000000">process</text>
</g>
<!-- GO:0065007 -->
<g id="node2" class="node">
<title>GO:0065007</title>
<polygon fill="#ffffff" stroke="#000000" points="369.9526,-865.8019 237.4458,-865.8019 237.4458,-824.5981 369.9526,-824.5981 369.9526,-865.8019"/>
<text text-anchor="middle" x="303.6992" y="-849.4" font-family="Times,serif" font-size="14.00" fill="#000000">GO:0065007</text>
<text text-anchor="middle" x="303.6992" y="-832.6" font-family="Times,serif" font-size="14.00" fill="#000000">biological regulation</text>
</g>
<!-- GO:0019222&#45;&gt;GO:0065007 -->
<g id="edge1" class="edge">
<title>GO:0019222&#45;&gt;GO:0065007</title>
<path fill="none" stroke="#000000" d="M249.2622,-780.1513C259.0515,-791.8488 270.2761,-805.2615 279.98,-816.857"/>
<polygon fill="#000000" stroke="#000000" points="277.3168,-819.1283 286.4188,-824.551 282.685,-814.6358 277.3168,-819.1283"/>
</g>
<!-- GO:0050789 -->
<g id="node3" class="node">
<title>GO:0050789</title>
<polygon fill="#ffffff" stroke="#000000" points="219.6136,-874.6014 71.7848,-874.6014 71.7848,-815.7986 219.6136,-815.7986 219.6136,-874.6014"/>
<text text-anchor="middle" x="145.6992" y="-857.8" font-family="Times,serif" font-size="14.00" fill="#000000">GO:0050789</text>
<text text-anchor="middle" x="145.6992" y="-841" font-family="Times,serif" font-size="14.00" fill="#000000">regulation of biological</text>
<text text-anchor="middle" x="145.6992" y="-824.2" font-family="Times,serif" font-size="14.00" fill="#000000">process</text>
</g>
<!-- GO:0019222&#45;&gt;GO:0050789 -->
<g id="edge2" class="edge">
<title>GO:0019222&#45;&gt;GO:0050789</title>
<path fill="none" stroke="#000000" d="M200.1362,-780.1513C192.7794,-788.9422 184.6119,-798.7018 176.8885,-807.9308"/>
<polygon fill="#000000" stroke="#000000" points="173.9808,-805.9517 170.2471,-815.8669 179.349,-810.4442 173.9808,-805.9517"/>
</g>
<!-- GO:0008150 -->
<g id="node4" class="node">
<title>GO:0008150</title>
<polygon fill="#ffffff" stroke="#000000" points="687.1698,-951.8019 566.2286,-951.8019 566.2286,-910.5981 687.1698,-910.5981 687.1698,-951.8019"/>
<text text-anchor="middle" x="626.6992" y="-935.4" font-family="Times,serif" font-size="14.00" fill="#000000">GO:0008150</text>
<text text-anchor="middle" x="626.6992" y="-918.6" font-family="Times,serif" font-size="14.00" fill="#000000">biological_process</text>
</g>
<!-- GO:0065007&#45;&gt;GO:0008150 -->
<g id="edge3" class="edge">
<title>GO:0065007&#45;&gt;GO:0008150</title>
<path fill="none" stroke="#000000" d="M369.8425,-862.8109C424.1655,-877.2746 500.9141,-897.7092 556.3534,-912.4702"/>
<polygon fill="#000000" stroke="#000000" points="555.5355,-915.8743 566.0994,-915.0651 557.3366,-909.1099 555.5355,-915.8743"/>
</g>
<!-- GO:0050789&#45;&gt;GO:0008150 -->
<g id="edge4" class="edge">
<title>GO:0050789&#45;&gt;GO:0008150</title>
<path fill="none" stroke="#000000" d="M219.6927,-872.0415C222.7213,-872.8827 225.7317,-873.6737 228.6992,-874.4 341.5015,-902.007 475.7974,-917.7217 555.9982,-925.3409"/>
<polygon fill="#000000" stroke="#000000" points="555.7036,-928.8286 565.9859,-926.2744 556.355,-921.8589 555.7036,-928.8286"/>
</g>
<!-- GO:0090304 -->
<g id="node5" class="node">
<title>GO:0090304</title>
<polygon fill="#ffff00" stroke="#000000" points="802.6502,-463.4014 660.7482,-463.4014 660.7482,-404.5986 802.6502,-404.5986 802.6502,-463.4014"/>
<text text-anchor="middle" x="731.6992" y="-446.6" font-family="Times,serif" font-size="14.00" fill="#000000">GO:0090304</text>
<text text-anchor="middle" x="731.6992" y="-429.8" font-family="Times,serif" font-size="14.00" fill="#000000">nucleic acid metabolic</text>
<text text-anchor="middle" x="731.6992" y="-413" font-family="Times,serif" font-size="14.00" fill="#000000">process</text>
</g>
<!-- GO:0006139 -->
<g id="node6" class="node">
<title>GO:0006139</title>
<polygon fill="#ffa500" stroke="#000000" points="842.6544,-574.5003 700.744,-574.5003 700.744,-499.0997 842.6544,-499.0997 842.6544,-574.5003"/>
<text text-anchor="middle" x="771.6992" y="-557.8" font-family="Times,serif" font-size="14.00" fill="#000000">GO:0006139</text>
<text text-anchor="middle" x="771.6992" y="-541" font-family="Times,serif" font-size="14.00" fill="#000000">nucleobase&#45;containing</text>
<text text-anchor="middle" x="771.6992" y="-524.2" font-family="Times,serif" font-size="14.00" fill="#000000">compound metabolic</text>
<text text-anchor="middle" x="771.6992" y="-507.4" font-family="Times,serif" font-size="14.00" fill="#000000">process</text>
</g>
<!-- GO:0090304&#45;&gt;GO:0006139 -->
<g id="edge5" class="edge">
<title>GO:0090304&#45;&gt;GO:0006139</title>
<path fill="none" stroke="#000000" d="M743.1616,-463.4584C746.315,-471.5625 749.8169,-480.5626 753.2571,-489.4037"/>
<polygon fill="#000000" stroke="#000000" points="750.0582,-490.8348 756.9463,-498.885 756.5818,-488.2964 750.0582,-490.8348"/>
</g>
<!-- GO:0043170 -->
<g id="node7" class="node">
<title>GO:0043170</title>
<polygon fill="#ffa500" stroke="#000000" points="683.2014,-566.2014 522.197,-566.2014 522.197,-507.3986 683.2014,-507.3986 683.2014,-566.2014"/>
<text text-anchor="middle" x="602.6992" y="-549.4" font-family="Times,serif" font-size="14.00" fill="#000000">GO:0043170</text>
<text text-anchor="middle" x="602.6992" y="-532.6" font-family="Times,serif" font-size="14.00" fill="#000000">macromolecule metabolic</text>
<text text-anchor="middle" x="602.6992" y="-515.8" font-family="Times,serif" font-size="14.00" fill="#000000">process</text>
</g>
<!-- GO:0090304&#45;&gt;GO:0043170 -->
<g id="edge6" class="edge">
<title>GO:0090304&#45;&gt;GO:0043170</title>
<path fill="none" stroke="#000000" d="M694.733,-463.4584C680.0241,-475.1798 662.9635,-488.7754 647.556,-501.0536"/>
<polygon fill="#000000" stroke="#000000" points="645.3101,-498.368 639.6708,-507.3373 649.6726,-503.8423 645.3101,-498.368"/>
</g>
<!-- GO:0044238 -->
<g id="node8" class="node">
<title>GO:0044238</title>
<polygon fill="#ff0000" stroke="#000000" points="390.7022,-668.6019 226.6962,-668.6019 226.6962,-627.3981 390.7022,-627.3981 390.7022,-668.6019"/>
<text text-anchor="middle" x="308.6992" y="-652.2" font-family="Times,serif" font-size="14.00" fill="#000000">GO:0044238</text>
<text text-anchor="middle" x="308.6992" y="-635.4" font-family="Times,serif" font-size="14.00" fill="#000000">primary metabolic process</text>
</g>
<!-- GO:0006139&#45;&gt;GO:0044238 -->
<g id="edge7" class="edge">
<title>GO:0006139&#45;&gt;GO:0044238</title>
<path fill="none" stroke="#000000" d="M700.6229,-571.8872C697.9709,-572.7934 695.3244,-573.6359 692.6992,-574.4 566.7254,-611.0664 526.5903,-577.0463 399.6992,-610.4 386.9201,-613.759 373.5617,-618.5175 361.139,-623.5241"/>
<polygon fill="#000000" stroke="#000000" points="359.7403,-620.3151 351.8467,-627.382 362.4244,-626.7801 359.7403,-620.3151"/>
</g>
<!-- GO:0034641 -->
<g id="node9" class="node">
<title>GO:0034641</title>
<polygon fill="#ff0000" stroke="#000000" points="838.5107,-685.7003 704.8877,-685.7003 704.8877,-610.2997 838.5107,-610.2997 838.5107,-685.7003"/>
<text text-anchor="middle" x="771.6992" y="-669" font-family="Times,serif" font-size="14.00" fill="#000000">GO:0034641</text>
<text text-anchor="middle" x="771.6992" y="-652.2" font-family="Times,serif" font-size="14.00" fill="#000000">cellular nitrogen</text>
<text text-anchor="middle" x="771.6992" y="-635.4" font-family="Times,serif" font-size="14.00" fill="#000000">compound metabolic</text>
<text text-anchor="middle" x="771.6992" y="-618.6" font-family="Times,serif" font-size="14.00" fill="#000000">process</text>
</g>
<!-- GO:0006139&#45;&gt;GO:0034641 -->
<g id="edge8" class="edge">
<title>GO:0006139&#45;&gt;GO:0034641</title>
<path fill="none" stroke="#000000" d="M771.6992,-574.4472C771.6992,-582.78 771.6992,-591.7155 771.6992,-600.3863"/>
<polygon fill="#000000" stroke="#000000" points="768.1993,-600.3915 771.6992,-610.3915 775.1993,-600.3916 768.1993,-600.3915"/>
</g>
<!-- GO:0006725 -->
<g id="node10" class="node">
<title>GO:0006725</title>
<polygon fill="#ff0000" stroke="#000000" points="1148.5107,-685.7003 1014.8877,-685.7003 1014.8877,-610.2997 1148.5107,-610.2997 1148.5107,-685.7003"/>
<text text-anchor="middle" x="1081.6992" y="-669" font-family="Times,serif" font-size="14.00" fill="#000000">GO:0006725</text>
<text text-anchor="middle" x="1081.6992" y="-652.2" font-family="Times,serif" font-size="14.00" fill="#000000">cellular aromatic</text>
<text text-anchor="middle" x="1081.6992" y="-635.4" font-family="Times,serif" font-size="14.00" fill="#000000">compound metabolic</text>
<text text-anchor="middle" x="1081.6992" y="-618.6" font-family="Times,serif" font-size="14.00" fill="#000000">process</text>
</g>
<!-- GO:0006139&#45;&gt;GO:0006725 -->
<g id="edge9" class="edge">
<title>GO:0006139&#45;&gt;GO:0006725</title>
<path fill="none" stroke="#000000" d="M842.8376,-556.0682C887.3543,-568.8423 945.8554,-586.9335 1005.2763,-610.3997"/>
<polygon fill="#000000" stroke="#000000" points="1004.234,-613.7522 1014.8189,-614.212 1006.831,-607.2518 1004.234,-613.7522"/>
</g>
<!-- GO:1901360 -->
<g id="node11" class="node">
<title>GO:1901360</title>
<polygon fill="#ff0000" stroke="#000000" points="208.2106,-677.4014 51.1878,-677.4014 51.1878,-618.5986 208.2106,-618.5986 208.2106,-677.4014"/>
<text text-anchor="middle" x="129.6992" y="-660.6" font-family="Times,serif" font-size="14.00" fill="#000000">GO:1901360</text>
<text text-anchor="middle" x="129.6992" y="-643.8" font-family="Times,serif" font-size="14.00" fill="#000000">organic cyclic compound</text>
<text text-anchor="middle" x="129.6992" y="-627" font-family="Times,serif" font-size="14.00" fill="#000000">metabolic process</text>
</g>
<!-- GO:0006139&#45;&gt;GO:1901360 -->
<g id="edge10" class="edge">
<title>GO:0006139&#45;&gt;GO:1901360</title>
<path fill="none" stroke="#000000" d="M700.6672,-572.0464C698.0027,-572.9075 695.3415,-573.6973 692.6992,-574.4 488.0948,-628.8147 423.3616,-560.1321 217.6992,-610.4 212.1162,-611.7646 206.4351,-613.447 200.7844,-615.3364"/>
<polygon fill="#000000" stroke="#000000" points="199.5803,-612.0498 191.3261,-618.6919 201.9209,-618.6469 199.5803,-612.0498"/>
</g>
<!-- GO:0046483 -->
<g id="node12" class="node">
<title>GO:0046483</title>
<polygon fill="#ff0000" stroke="#000000" points="996.4204,-677.4014 856.978,-677.4014 856.978,-618.5986 996.4204,-618.5986 996.4204,-677.4014"/>
<text text-anchor="middle" x="926.6992" y="-660.6" font-family="Times,serif" font-size="14.00" fill="#000000">GO:0046483</text>
<text text-anchor="middle" x="926.6992" y="-643.8" font-family="Times,serif" font-size="14.00" fill="#000000">heterocycle metabolic</text>
<text text-anchor="middle" x="926.6992" y="-627" font-family="Times,serif" font-size="14.00" fill="#000000">process</text>
</g>
<!-- GO:0006139&#45;&gt;GO:0046483 -->
<g id="edge11" class="edge">
<title>GO:0006139&#45;&gt;GO:0046483</title>
<path fill="none" stroke="#000000" d="M824.1751,-574.4472C841.3835,-586.7928 860.4357,-600.4613 877.4004,-612.6321"/>
<polygon fill="#000000" stroke="#000000" points="875.378,-615.4887 885.5436,-618.4742 879.4585,-609.801 875.378,-615.4887"/>
</g>
<!-- GO:0071704 -->
<g id="node13" class="node">
<title>GO:0071704</title>
<polygon fill="#ff0000" stroke="#000000" points="432.8848,-780.2014 316.5136,-780.2014 316.5136,-721.3986 432.8848,-721.3986 432.8848,-780.2014"/>
<text text-anchor="middle" x="374.6992" y="-763.4" font-family="Times,serif" font-size="14.00" fill="#000000">GO:0071704</text>
<text text-anchor="middle" x="374.6992" y="-746.6" font-family="Times,serif" font-size="14.00" fill="#000000">organic substance</text>
<text text-anchor="middle" x="374.6992" y="-729.8" font-family="Times,serif" font-size="14.00" fill="#000000">metabolic process</text>
</g>
<!-- GO:0043170&#45;&gt;GO:0071704 -->
<g id="edge12" class="edge">
<title>GO:0043170&#45;&gt;GO:0071704</title>
<path fill="none" stroke="#000000" d="M522.0272,-541.5796C374.3744,-551.1554 72.8767,-574.865 41.6992,-610.4 19.6567,-635.5232 19.7142,-660.4265 41.6992,-685.6 80.7918,-730.3624 249.4274,-705.7303 306.6992,-721.6 306.7998,-721.6279 306.9004,-721.6559 307.0011,-721.684"/>
<polygon fill="#000000" stroke="#000000" points="305.8689,-724.9974 316.4564,-724.6025 307.9335,-718.3088 305.8689,-724.9974"/>
</g>
<!-- GO:0008152 -->
<g id="node14" class="node">
<title>GO:0008152</title>
<polygon fill="#ffffff" stroke="#000000" points="684.8848,-865.8019 568.5136,-865.8019 568.5136,-824.5981 684.8848,-824.5981 684.8848,-865.8019"/>
<text text-anchor="middle" x="626.6992" y="-849.4" font-family="Times,serif" font-size="14.00" fill="#000000">GO:0008152</text>
<text text-anchor="middle" x="626.6992" y="-832.6" font-family="Times,serif" font-size="14.00" fill="#000000">metabolic process</text>
</g>
<!-- GO:0044238&#45;&gt;GO:0008152 -->
<g id="edge13" class="edge">
<title>GO:0044238&#45;&gt;GO:0008152</title>
<path fill="none" stroke="#000000" d="M359.2123,-668.7392C385.796,-681.337 417.7488,-699.3018 441.6992,-721.6 464.3636,-742.7009 456.1289,-759.9161 479.6992,-780 502.5051,-799.4326 532.0242,-814.0307 558.6199,-824.4326"/>
<polygon fill="#000000" stroke="#000000" points="557.6765,-827.8175 568.2681,-828.0762 560.1495,-821.2689 557.6765,-827.8175"/>
</g>
<!-- GO:0006807 -->
<g id="node15" class="node">
<title>GO:0006807</title>
<polygon fill="#ff0000" stroke="#000000" points="762.4611,-780.2014 636.9373,-780.2014 636.9373,-721.3986 762.4611,-721.3986 762.4611,-780.2014"/>
<text text-anchor="middle" x="699.6992" y="-763.4" font-family="Times,serif" font-size="14.00" fill="#000000">GO:0006807</text>
<text text-anchor="middle" x="699.6992" y="-746.6" font-family="Times,serif" font-size="14.00" fill="#000000">nitrogen compound</text>
<text text-anchor="middle" x="699.6992" y="-729.8" font-family="Times,serif" font-size="14.00" fill="#000000">metabolic process</text>
</g>
<!-- GO:0034641&#45;&gt;GO:0006807 -->
<g id="edge14" class="edge">
<title>GO:0034641&#45;&gt;GO:0006807</title>
<path fill="none" stroke="#000000" d="M745.2979,-685.6952C739.0326,-694.6407 732.3488,-704.1837 726.0841,-713.1282"/>
<polygon fill="#000000" stroke="#000000" points="723.1037,-711.2826 720.2336,-721.4814 728.8372,-715.2984 723.1037,-711.2826"/>
</g>
<!-- GO:0044237 -->
<g id="node16" class="node">
<title>GO:0044237</title>
<polygon fill="#ff0000" stroke="#000000" points="896.882,-780.2014 780.5164,-780.2014 780.5164,-721.3986 896.882,-721.3986 896.882,-780.2014"/>
<text text-anchor="middle" x="838.6992" y="-763.4" font-family="Times,serif" font-size="14.00" fill="#000000">GO:0044237</text>
<text text-anchor="middle" x="838.6992" y="-746.6" font-family="Times,serif" font-size="14.00" fill="#000000">cellular metabolic</text>
<text text-anchor="middle" x="838.6992" y="-729.8" font-family="Times,serif" font-size="14.00" fill="#000000">process</text>
</g>
<!-- GO:0034641&#45;&gt;GO:0044237 -->
<g id="edge15" class="edge">
<title>GO:0034641&#45;&gt;GO:0044237</title>
<path fill="none" stroke="#000000" d="M796.2671,-685.6952C802.0372,-694.5485 808.1888,-703.987 813.9661,-712.8513"/>
<polygon fill="#000000" stroke="#000000" points="811.1983,-715.0147 819.5908,-721.4814 817.0627,-711.1925 811.1983,-715.0147"/>
</g>
<!-- GO:0006725&#45;&gt;GO:0044237 -->
<g id="edge16" class="edge">
<title>GO:0006725&#45;&gt;GO:0044237</title>
<path fill="none" stroke="#000000" d="M1014.7504,-681.6229C1011.7042,-682.9944 1008.677,-684.3266 1005.6992,-685.6 962.6513,-704.0087 950.2269,-704.3564 906.6992,-721.6 906.6021,-721.6384 906.505,-721.6769 906.4078,-721.7155"/>
<polygon fill="#000000" stroke="#000000" points="905.1823,-718.4358 897.2169,-725.4217 907.8002,-724.9278 905.1823,-718.4358"/>
</g>
<!-- GO:1901360&#45;&gt;GO:0071704 -->
<g id="edge17" class="edge">
<title>GO:1901360&#45;&gt;GO:0071704</title>
<path fill="none" stroke="#000000" d="M197.8635,-677.2792C204.5587,-680.1086 211.2562,-682.9208 217.6992,-685.6 257.0975,-701.9833 267.3157,-705.1811 306.6992,-721.6 306.7993,-721.6417 306.8994,-721.6835 306.9996,-721.7253"/>
<polygon fill="#000000" stroke="#000000" points="305.9198,-725.0678 316.4951,-725.7103 308.6286,-718.6131 305.9198,-725.0678"/>
</g>
<!-- GO:0046483&#45;&gt;GO:0044237 -->
<g id="edge18" class="edge">
<title>GO:0046483&#45;&gt;GO:0044237</title>
<path fill="none" stroke="#000000" d="M901.4819,-677.4584C891.8162,-688.7497 880.6617,-701.7801 870.4607,-713.6967"/>
<polygon fill="#000000" stroke="#000000" points="867.7644,-711.4645 863.9202,-721.3373 873.0821,-716.0167 867.7644,-711.4645"/>
</g>
<!-- GO:0071704&#45;&gt;GO:0008152 -->
<g id="edge19" class="edge">
<title>GO:0071704&#45;&gt;GO:0008152</title>
<path fill="none" stroke="#000000" d="M433.1751,-774.7303C437.7432,-776.5339 442.2915,-778.3086 446.6992,-780 483.4148,-794.089 524.6427,-809.0823 558.3686,-821.1344"/>
<polygon fill="#000000" stroke="#000000" points="557.5306,-824.5514 568.1253,-824.6138 559.8819,-817.9581 557.5306,-824.5514"/>
</g>
<!-- GO:0008152&#45;&gt;GO:0008150 -->
<g id="edge20" class="edge">
<title>GO:0008152&#45;&gt;GO:0008150</title>
<path fill="none" stroke="#000000" d="M626.6992,-866.0182C626.6992,-876.3705 626.6992,-889.0848 626.6992,-900.5271"/>
<polygon fill="#000000" stroke="#000000" points="623.1993,-900.5735 626.6992,-910.5735 630.1993,-900.5735 623.1993,-900.5735"/>
</g>
<!-- GO:0006807&#45;&gt;GO:0008152 -->
<g id="edge21" class="edge">
<title>GO:0006807&#45;&gt;GO:0008152</title>
<path fill="none" stroke="#000000" d="M677.0017,-780.1513C668.043,-791.7363 657.7832,-805.0037 648.876,-816.522"/>
<polygon fill="#000000" stroke="#000000" points="646.0158,-814.4992 642.6672,-824.551 651.5533,-818.7814 646.0158,-814.4992"/>
</g>
<!-- GO:0044237&#45;&gt;GO:0008152 -->
<g id="edge23" class="edge">
<title>GO:0044237&#45;&gt;GO:0008152</title>
<path fill="none" stroke="#000000" d="M780.4889,-776.7201C749.8288,-790.3725 712.4222,-807.029 682.178,-820.4962"/>
<polygon fill="#000000" stroke="#000000" points="680.7487,-817.3013 673.0372,-824.5665 683.5962,-823.696 680.7487,-817.3013"/>
</g>
<!-- GO:0009987 -->
<g id="node17" class="node">
<title>GO:0009987</title>
<polygon fill="#ff0000" stroke="#000000" points="890.6554,-865.8019 786.743,-865.8019 786.743,-824.5981 890.6554,-824.5981 890.6554,-865.8019"/>
<text text-anchor="middle" x="838.6992" y="-849.4" font-family="Times,serif" font-size="14.00" fill="#000000">GO:0009987</text>
<text text-anchor="middle" x="838.6992" y="-832.6" font-family="Times,serif" font-size="14.00" fill="#000000">cellular process</text>
</g>
<!-- GO:0044237&#45;&gt;GO:0009987 -->
<g id="edge22" class="edge">
<title>GO:0044237&#45;&gt;GO:0009987</title>
<path fill="none" stroke="#000000" d="M838.6992,-780.1513C838.6992,-791.0614 838.6992,-803.4637 838.6992,-814.492"/>
<polygon fill="#000000" stroke="#000000" points="835.1993,-814.5509 838.6992,-824.551 842.1993,-814.551 835.1993,-814.5509"/>
</g>
<!-- GO:0009987&#45;&gt;GO:0008150 -->
<g id="edge27" class="edge">
<title>GO:0009987&#45;&gt;GO:0008150</title>
<path fill="none" stroke="#000000" d="M787.6501,-865.9086C757.4488,-878.1601 719.0213,-893.7486 687.2889,-906.6212"/>
<polygon fill="#000000" stroke="#000000" points="685.6232,-903.5198 677.6723,-910.5222 688.2546,-910.0064 685.6232,-903.5198"/>
</g>
<!-- GO:0044249 -->
<g id="node18" class="node">
<title>GO:0044249</title>
<polygon fill="#ff00ff" stroke="#000000" points="686.6116,-677.4014 556.7868,-677.4014 556.7868,-618.5986 686.6116,-618.5986 686.6116,-677.4014"/>
<text text-anchor="middle" x="621.6992" y="-660.6" font-family="Times,serif" font-size="14.00" fill="#000000">GO:0044249</text>
<text text-anchor="middle" x="621.6992" y="-643.8" font-family="Times,serif" font-size="14.00" fill="#000000">cellular biosynthetic</text>
<text text-anchor="middle" x="621.6992" y="-627" font-family="Times,serif" font-size="14.00" fill="#000000">process</text>
</g>
<!-- GO:0044249&#45;&gt;GO:0044237 -->
<g id="edge25" class="edge">
<title>GO:0044249&#45;&gt;GO:0044237</title>
<path fill="none" stroke="#000000" d="M678.9465,-677.389C684.5912,-680.1961 690.2466,-682.9731 695.6992,-685.6 720.1125,-697.3613 747.106,-709.8101 771.0034,-720.6428"/>
<polygon fill="#000000" stroke="#000000" points="769.7892,-723.9349 780.343,-724.8658 772.6732,-717.5566 769.7892,-723.9349"/>
</g>
<!-- GO:0009058 -->
<g id="node19" class="node">
<title>GO:0009058</title>
<polygon fill="#ffffff" stroke="#000000" points="618.6144,-771.4019 488.784,-771.4019 488.784,-730.1981 618.6144,-730.1981 618.6144,-771.4019"/>
<text text-anchor="middle" x="553.6992" y="-755" font-family="Times,serif" font-size="14.00" fill="#000000">GO:0009058</text>
<text text-anchor="middle" x="553.6992" y="-738.2" font-family="Times,serif" font-size="14.00" fill="#000000">biosynthetic process</text>
</g>
<!-- GO:0044249&#45;&gt;GO:0009058 -->
<g id="edge24" class="edge">
<title>GO:0044249&#45;&gt;GO:0009058</title>
<path fill="none" stroke="#000000" d="M602.2131,-677.4584C593.0701,-691.2805 582.2032,-707.7087 573.0741,-721.5096"/>
<polygon fill="#000000" stroke="#000000" points="569.9595,-719.8742 567.3616,-730.1456 575.7978,-723.7362 569.9595,-719.8742"/>
</g>
<!-- GO:0009058&#45;&gt;GO:0008152 -->
<g id="edge26" class="edge">
<title>GO:0009058&#45;&gt;GO:0008152</title>
<path fill="none" stroke="#000000" d="M569.9003,-771.7504C580.0129,-784.8276 593.1737,-801.8464 604.2801,-816.2087"/>
<polygon fill="#000000" stroke="#000000" points="601.6573,-818.5386 610.5434,-824.3081 607.1948,-814.2564 601.6573,-818.5386"/>
</g>
<!-- GO:0044699 -->
<g id="node20" class="node">
<title>GO:0044699</title>
<polygon fill="#ff00ff" stroke="#000000" points="1073.3805,-865.8019 922.0179,-865.8019 922.0179,-824.5981 1073.3805,-824.5981 1073.3805,-865.8019"/>
<text text-anchor="middle" x="997.6992" y="-849.4" font-family="Times,serif" font-size="14.00" fill="#000000">GO:0044699</text>
<text text-anchor="middle" x="997.6992" y="-832.6" font-family="Times,serif" font-size="14.00" fill="#000000">single&#45;organism process</text>
</g>
<!-- GO:0044699&#45;&gt;GO:0008150 -->
<g id="edge28" class="edge">
<title>GO:0044699&#45;&gt;GO:0008150</title>
<path fill="none" stroke="#000000" d="M931.2225,-865.8297C920.7156,-868.8522 909.9408,-871.8137 899.6992,-874.4 831.4302,-891.6399 752.6118,-907.625 697.2684,-918.216"/>
<polygon fill="#000000" stroke="#000000" points="696.3846,-914.8213 687.2157,-920.1299 697.6938,-921.6978 696.3846,-914.8213"/>
</g>
<!-- GO:0044710 -->
<g id="node21" class="node">
<title>GO:0044710</title>
<polygon fill="#ff00ff" stroke="#000000" points="1080.1074,-780.2014 915.291,-780.2014 915.291,-721.3986 1080.1074,-721.3986 1080.1074,-780.2014"/>
<text text-anchor="middle" x="997.6992" y="-763.4" font-family="Times,serif" font-size="14.00" fill="#000000">GO:0044710</text>
<text text-anchor="middle" x="997.6992" y="-746.6" font-family="Times,serif" font-size="14.00" fill="#000000">single&#45;organism metabolic</text>
<text text-anchor="middle" x="997.6992" y="-729.8" font-family="Times,serif" font-size="14.00" fill="#000000">process</text>
</g>
<!-- GO:0044710&#45;&gt;GO:0008152 -->
<g id="edge29" class="edge">
<title>GO:0044710&#45;&gt;GO:0008152</title>
<path fill="none" stroke="#000000" d="M915.0376,-777.3699C911.89,-778.2755 908.7691,-779.1555 905.6992,-780 834.3262,-799.6343 751.6532,-818.4737 694.936,-830.8077"/>
<polygon fill="#000000" stroke="#000000" points="694.0412,-827.4202 685.0086,-832.9577 695.5229,-834.2616 694.0412,-827.4202"/>
</g>
<!-- GO:0044710&#45;&gt;GO:0044699 -->
<g id="edge30" class="edge">
<title>GO:0044710&#45;&gt;GO:0044699</title>
<path fill="none" stroke="#000000" d="M997.6992,-780.1513C997.6992,-791.0614 997.6992,-803.4637 997.6992,-814.492"/>
<polygon fill="#000000" stroke="#000000" points="994.1993,-814.5509 997.6992,-824.551 1001.1993,-814.551 994.1993,-814.5509"/>
</g>
<!-- GO:0044260 -->
<g id="node22" class="node">
<title>GO:0044260</title>
<polygon fill="#ffa500" stroke="#000000" points="968.4716,-463.4014 820.9268,-463.4014 820.9268,-404.5986 968.4716,-404.5986 968.4716,-463.4014"/>
<text text-anchor="middle" x="894.6992" y="-446.6" font-family="Times,serif" font-size="14.00" fill="#000000">GO:0044260</text>
<text text-anchor="middle" x="894.6992" y="-429.8" font-family="Times,serif" font-size="14.00" fill="#000000">cellular macromolecule</text>
<text text-anchor="middle" x="894.6992" y="-413" font-family="Times,serif" font-size="14.00" fill="#000000">metabolic process</text>
</g>
<!-- GO:0044260&#45;&gt;GO:0043170 -->
<g id="edge32" class="edge">
<title>GO:0044260&#45;&gt;GO:0043170</title>
<path fill="none" stroke="#000000" d="M820.546,-460.2809C817.5617,-461.2773 814.6041,-462.2539 811.6992,-463.2 758.7551,-480.4442 744.0887,-480.3376 691.6992,-499.2 687.7044,-500.6383 683.6294,-502.1598 679.5293,-503.7339"/>
<polygon fill="#000000" stroke="#000000" points="677.9775,-500.5827 669.9422,-507.4881 680.53,-507.1008 677.9775,-500.5827"/>
</g>
<!-- GO:0044260&#45;&gt;GO:0044237 -->
<g id="edge31" class="edge">
<title>GO:0044260&#45;&gt;GO:0044237</title>
<path fill="none" stroke="#000000" d="M967.222,-463.3175C1068.7705,-508.4424 1232.9218,-598.8187 1157.6992,-685.6 1120.7914,-728.179 960.9453,-706.3514 906.6992,-721.6 906.5987,-721.6282 906.4982,-721.6566 906.3976,-721.6851"/>
<polygon fill="#000000" stroke="#000000" points="905.4545,-718.3129 896.9501,-724.6314 907.5386,-724.9954 905.4545,-718.3129"/>
</g>
<!-- GO:0006400 -->
<g id="node23" class="node">
<title>GO:0006400</title>
<polygon fill="#ff00ff" stroke="#000000" points="743.1833,-41.4019 618.2151,-41.4019 618.2151,-.1981 743.1833,-.1981 743.1833,-41.4019"/>
<text text-anchor="middle" x="680.6992" y="-25" font-family="Times,serif" font-size="14.00" fill="#000000">GO:0006400</text>
<text text-anchor="middle" x="680.6992" y="-8.2" font-family="Times,serif" font-size="14.00" fill="#000000">tRNA modification</text>
</g>
<!-- GO:0008033 -->
<g id="node24" class="node">
<title>GO:0008033</title>
<polygon fill="#ffffff" stroke="#000000" points="803.0094,-119.0019 690.389,-119.0019 690.389,-77.7981 803.0094,-77.7981 803.0094,-119.0019"/>
<text text-anchor="middle" x="746.6992" y="-102.6" font-family="Times,serif" font-size="14.00" fill="#000000">GO:0008033</text>
<text text-anchor="middle" x="746.6992" y="-85.8" font-family="Times,serif" font-size="14.00" fill="#000000">tRNA processing</text>
</g>
<!-- GO:0006400&#45;&gt;GO:0008033 -->
<g id="edge33" class="edge">
<title>GO:0006400&#45;&gt;GO:0008033</title>
<path fill="none" stroke="#000000" d="M698.386,-41.5954C705.7841,-50.2937 714.5015,-60.5433 722.4803,-69.9244"/>
<polygon fill="#000000" stroke="#000000" points="719.8187,-72.1973 728.9636,-77.5472 725.1509,-67.6622 719.8187,-72.1973"/>
</g>
<!-- GO:0009451 -->
<g id="node25" class="node">
<title>GO:0009451</title>
<polygon fill="#ffffff" stroke="#000000" points="662.7925,-274.2019 542.6059,-274.2019 542.6059,-232.9981 662.7925,-232.9981 662.7925,-274.2019"/>
<text text-anchor="middle" x="602.6992" y="-257.8" font-family="Times,serif" font-size="14.00" fill="#000000">GO:0009451</text>
<text text-anchor="middle" x="602.6992" y="-241" font-family="Times,serif" font-size="14.00" fill="#000000">RNA modification</text>
</g>
<!-- GO:0006400&#45;&gt;GO:0009451 -->
<g id="edge34" class="edge">
<title>GO:0006400&#45;&gt;GO:0009451</title>
<path fill="none" stroke="#000000" d="M673.7772,-41.4594C659.9583,-82.7036 628.8993,-175.4027 612.802,-223.4471"/>
<polygon fill="#000000" stroke="#000000" points="609.464,-222.393 609.6057,-232.9869 616.1013,-224.6169 609.464,-222.393"/>
</g>
<!-- GO:0006399 -->
<g id="node26" class="node">
<title>GO:0006399</title>
<polygon fill="#ffffff" stroke="#000000" points="823.3253,-196.6019 670.0731,-196.6019 670.0731,-155.3981 823.3253,-155.3981 823.3253,-196.6019"/>
<text text-anchor="middle" x="746.6992" y="-180.2" font-family="Times,serif" font-size="14.00" fill="#000000">GO:0006399</text>
<text text-anchor="middle" x="746.6992" y="-163.4" font-family="Times,serif" font-size="14.00" fill="#000000">tRNA metabolic process</text>
</g>
<!-- GO:0008033&#45;&gt;GO:0006399 -->
<g id="edge35" class="edge">
<title>GO:0008033&#45;&gt;GO:0006399</title>
<path fill="none" stroke="#000000" d="M746.6992,-119.1954C746.6992,-127.1109 746.6992,-136.3109 746.6992,-144.9722"/>
<polygon fill="#000000" stroke="#000000" points="743.1993,-145.1472 746.6992,-155.1472 750.1993,-145.1473 743.1993,-145.1472"/>
</g>
<!-- GO:0034470 -->
<g id="node27" class="node">
<title>GO:0034470</title>
<polygon fill="#ffffff" stroke="#000000" points="963.8333,-196.6019 841.5651,-196.6019 841.5651,-155.3981 963.8333,-155.3981 963.8333,-196.6019"/>
<text text-anchor="middle" x="902.6992" y="-180.2" font-family="Times,serif" font-size="14.00" fill="#000000">GO:0034470</text>
<text text-anchor="middle" x="902.6992" y="-163.4" font-family="Times,serif" font-size="14.00" fill="#000000">ncRNA processing</text>
</g>
<!-- GO:0008033&#45;&gt;GO:0034470 -->
<g id="edge36" class="edge">
<title>GO:0008033&#45;&gt;GO:0034470</title>
<path fill="none" stroke="#000000" d="M788.5043,-119.1954C807.9924,-128.8895 831.3538,-140.5102 851.8552,-150.7084"/>
<polygon fill="#000000" stroke="#000000" points="850.5371,-153.9618 861.0494,-155.2819 853.6548,-147.6944 850.5371,-153.9618"/>
</g>
<!-- GO:0016070 -->
<g id="node28" class="node">
<title>GO:0016070</title>
<polygon fill="#ff00ff" stroke="#000000" points="837.4344,-360.2019 687.964,-360.2019 687.964,-318.9981 837.4344,-318.9981 837.4344,-360.2019"/>
<text text-anchor="middle" x="762.6992" y="-343.8" font-family="Times,serif" font-size="14.00" fill="#000000">GO:0016070</text>
<text text-anchor="middle" x="762.6992" y="-327" font-family="Times,serif" font-size="14.00" fill="#000000">RNA metabolic process</text>
</g>
<!-- GO:0009451&#45;&gt;GO:0016070 -->
<g id="edge37" class="edge">
<title>GO:0009451&#45;&gt;GO:0016070</title>
<path fill="none" stroke="#000000" d="M641.4307,-274.4182C663.6388,-286.355 691.6896,-301.4323 715.218,-314.0788"/>
<polygon fill="#000000" stroke="#000000" points="713.859,-317.3219 724.3243,-318.9735 717.1732,-311.1561 713.859,-317.3219"/>
</g>
<!-- GO:0043412 -->
<g id="node29" class="node">
<title>GO:0043412</title>
<polygon fill="#00ffff" stroke="#000000" points="653.9956,-369.0014 551.4028,-369.0014 551.4028,-310.1986 653.9956,-310.1986 653.9956,-369.0014"/>
<text text-anchor="middle" x="602.6992" y="-352.2" font-family="Times,serif" font-size="14.00" fill="#000000">GO:0043412</text>
<text text-anchor="middle" x="602.6992" y="-335.4" font-family="Times,serif" font-size="14.00" fill="#000000">macromolecule</text>
<text text-anchor="middle" x="602.6992" y="-318.6" font-family="Times,serif" font-size="14.00" fill="#000000">modification</text>
</g>
<!-- GO:0009451&#45;&gt;GO:0043412 -->
<g id="edge38" class="edge">
<title>GO:0009451&#45;&gt;GO:0043412</title>
<path fill="none" stroke="#000000" d="M602.6992,-274.4182C602.6992,-282.1358 602.6992,-291.1662 602.6992,-300.0036"/>
<polygon fill="#000000" stroke="#000000" points="599.1993,-300.1991 602.6992,-310.1991 606.1993,-300.1992 599.1993,-300.1991"/>
</g>
<!-- GO:0034660 -->
<g id="node30" class="node">
<title>GO:0034660</title>
<polygon fill="#ffffff" stroke="#000000" points="844.1488,-274.2019 681.2496,-274.2019 681.2496,-232.9981 844.1488,-232.9981 844.1488,-274.2019"/>
<text text-anchor="middle" x="762.6992" y="-257.8" font-family="Times,serif" font-size="14.00" fill="#000000">GO:0034660</text>
<text text-anchor="middle" x="762.6992" y="-241" font-family="Times,serif" font-size="14.00" fill="#000000">ncRNA metabolic process</text>
</g>
<!-- GO:0006399&#45;&gt;GO:0034660 -->
<g id="edge39" class="edge">
<title>GO:0006399&#45;&gt;GO:0034660</title>
<path fill="none" stroke="#000000" d="M750.9869,-196.7954C752.6369,-204.7978 754.5576,-214.1133 756.3605,-222.8575"/>
<polygon fill="#000000" stroke="#000000" points="752.9523,-223.66 758.3997,-232.7472 759.8081,-222.2464 752.9523,-223.66"/>
</g>
<!-- GO:0034470&#45;&gt;GO:0034660 -->
<g id="edge40" class="edge">
<title>GO:0034470&#45;&gt;GO:0034660</title>
<path fill="none" stroke="#000000" d="M865.1818,-196.7954C848.0765,-206.2766 827.6463,-217.6008 809.5442,-227.6345"/>
<polygon fill="#000000" stroke="#000000" points="807.3697,-224.838 800.3202,-232.7472 810.7633,-230.9604 807.3697,-224.838"/>
</g>
<!-- GO:0006396 -->
<g id="node31" class="node">
<title>GO:0006396</title>
<polygon fill="#ffffff" stroke="#000000" points="971.1186,-274.2019 862.2798,-274.2019 862.2798,-232.9981 971.1186,-232.9981 971.1186,-274.2019"/>
<text text-anchor="middle" x="916.6992" y="-257.8" font-family="Times,serif" font-size="14.00" fill="#000000">GO:0006396</text>
<text text-anchor="middle" x="916.6992" y="-241" font-family="Times,serif" font-size="14.00" fill="#000000">RNA processing</text>
</g>
<!-- GO:0034470&#45;&gt;GO:0006396 -->
<g id="edge41" class="edge">
<title>GO:0034470&#45;&gt;GO:0006396</title>
<path fill="none" stroke="#000000" d="M906.4509,-196.7954C907.8947,-204.7978 909.5753,-214.1133 911.1529,-222.8575"/>
<polygon fill="#000000" stroke="#000000" points="907.7172,-223.5275 912.9371,-232.7472 914.606,-222.2847 907.7172,-223.5275"/>
</g>
<!-- GO:0016070&#45;&gt;GO:0090304 -->
<g id="edge42" class="edge">
<title>GO:0016070&#45;&gt;GO:0090304</title>
<path fill="none" stroke="#000000" d="M755.8193,-360.5504C752.5026,-370.6502 748.4138,-383.1012 744.5512,-394.8637"/>
<polygon fill="#000000" stroke="#000000" points="741.1764,-393.9227 741.3816,-404.5155 747.8269,-396.1067 741.1764,-393.9227"/>
</g>
<!-- GO:0016070&#45;&gt;GO:0044260 -->
<g id="edge43" class="edge">
<title>GO:0016070&#45;&gt;GO:0044260</title>
<path fill="none" stroke="#000000" d="M791.6672,-360.3165C807.462,-371.6122 827.4406,-385.8999 845.5917,-398.8807"/>
<polygon fill="#000000" stroke="#000000" points="843.6112,-401.7673 853.7812,-404.7374 847.6832,-396.0734 843.6112,-401.7673"/>
</g>
<!-- GO:0043412&#45;&gt;GO:0043170 -->
<g id="edge44" class="edge">
<title>GO:0043412&#45;&gt;GO:0043170</title>
<path fill="none" stroke="#000000" d="M602.6992,-369.1228C602.6992,-403.2024 602.6992,-459.4074 602.6992,-497.2461"/>
<polygon fill="#000000" stroke="#000000" points="599.1993,-497.3978 602.6992,-507.3978 606.1993,-497.3979 599.1993,-497.3978"/>
</g>
<!-- GO:0034660&#45;&gt;GO:0016070 -->
<g id="edge45" class="edge">
<title>GO:0034660&#45;&gt;GO:0016070</title>
<path fill="none" stroke="#000000" d="M762.6992,-274.4182C762.6992,-284.7705 762.6992,-297.4848 762.6992,-308.9271"/>
<polygon fill="#000000" stroke="#000000" points="759.1993,-308.9735 762.6992,-318.9735 766.1993,-308.9735 759.1993,-308.9735"/>
</g>
<!-- GO:0006396&#45;&gt;GO:0016070 -->
<g id="edge46" class="edge">
<title>GO:0006396&#45;&gt;GO:0016070</title>
<path fill="none" stroke="#000000" d="M879.4201,-274.4182C858.0449,-286.355 831.046,-301.4323 808.3999,-314.0788"/>
<polygon fill="#000000" stroke="#000000" points="806.6594,-311.042 799.635,-318.9735 810.0724,-317.1536 806.6594,-311.042"/>
</g>
<!-- GO:1901576 -->
<g id="node32" class="node">
<title>GO:1901576</title>
<polygon fill="#ff00ff" stroke="#000000" points="538.6144,-677.4014 408.784,-677.4014 408.784,-618.5986 538.6144,-618.5986 538.6144,-677.4014"/>
<text text-anchor="middle" x="473.6992" y="-660.6" font-family="Times,serif" font-size="14.00" fill="#000000">GO:1901576</text>
<text text-anchor="middle" x="473.6992" y="-643.8" font-family="Times,serif" font-size="14.00" fill="#000000">organic substance</text>
<text text-anchor="middle" x="473.6992" y="-627" font-family="Times,serif" font-size="14.00" fill="#000000">biosynthetic process</text>
</g>
<!-- GO:1901576&#45;&gt;GO:0071704 -->
<g id="edge47" class="edge">
<title>GO:1901576&#45;&gt;GO:0071704</title>
<path fill="none" stroke="#000000" d="M445.3298,-677.4584C434.3523,-688.8572 421.6679,-702.0285 410.1033,-714.0369"/>
<polygon fill="#000000" stroke="#000000" points="407.4884,-711.7065 403.0728,-721.3373 412.5305,-716.5622 407.4884,-711.7065"/>
</g>
<!-- GO:1901576&#45;&gt;GO:0009058 -->
<g id="edge48" class="edge">
<title>GO:1901576&#45;&gt;GO:0009058</title>
<path fill="none" stroke="#000000" d="M496.624,-677.4584C507.483,-691.4121 520.4088,-708.0219 531.2114,-721.9032"/>
<polygon fill="#000000" stroke="#000000" points="528.722,-724.4033 537.6258,-730.1456 534.2464,-720.1042 528.722,-724.4033"/>
</g>
<!-- GO:0050794 -->
<g id="node33" class="node">
<title>GO:0050794</title>
<polygon fill="#ff00ff" stroke="#000000" points="133.5982,-780.2014 -.1998,-780.2014 -.1998,-721.3986 133.5982,-721.3986 133.5982,-780.2014"/>
<text text-anchor="middle" x="66.6992" y="-763.4" font-family="Times,serif" font-size="14.00" fill="#000000">GO:0050794</text>
<text text-anchor="middle" x="66.6992" y="-746.6" font-family="Times,serif" font-size="14.00" fill="#000000">regulation of cellular</text>
<text text-anchor="middle" x="66.6992" y="-729.8" font-family="Times,serif" font-size="14.00" fill="#000000">process</text>
</g>
<!-- GO:0050794&#45;&gt;GO:0065007 -->
<g id="edge49" class="edge">
<title>GO:0050794&#45;&gt;GO:0065007</title>
<path fill="none" stroke="#000000" d="M133.6636,-777.4727C167.7996,-791.0695 209.0217,-807.4888 242.3284,-820.7553"/>
<polygon fill="#000000" stroke="#000000" points="241.3606,-824.1372 251.946,-824.5861 243.951,-817.634 241.3606,-824.1372"/>
</g>
<!-- GO:0050794&#45;&gt;GO:0050789 -->
<g id="edge50" class="edge">
<title>GO:0050794&#45;&gt;GO:0050789</title>
<path fill="none" stroke="#000000" d="M91.2622,-780.1513C98.619,-788.9422 106.7865,-798.7018 114.5099,-807.9308"/>
<polygon fill="#000000" stroke="#000000" points="112.0494,-810.4442 121.1513,-815.8669 117.4176,-805.9517 112.0494,-810.4442"/>
</g>
<!-- GO:0044763 -->
<g id="node34" class="node">
<title>GO:0044763</title>
<polygon fill="#ff00ff" stroke="#000000" points="1249.3777,-780.2014 1098.0207,-780.2014 1098.0207,-721.3986 1249.3777,-721.3986 1249.3777,-780.2014"/>
<text text-anchor="middle" x="1173.6992" y="-763.4" font-family="Times,serif" font-size="14.00" fill="#000000">GO:0044763</text>
<text text-anchor="middle" x="1173.6992" y="-746.6" font-family="Times,serif" font-size="14.00" fill="#000000">single&#45;organism cellular</text>
<text text-anchor="middle" x="1173.6992" y="-729.8" font-family="Times,serif" font-size="14.00" fill="#000000">process</text>
</g>
<!-- GO:0044763&#45;&gt;GO:0009987 -->
<g id="edge51" class="edge">
<title>GO:0044763&#45;&gt;GO:0009987</title>
<path fill="none" stroke="#000000" d="M1097.8504,-777.3991C1094.7689,-778.3074 1091.7099,-779.1787 1088.6992,-780 1011.6724,-801.0138 989.2345,-793.2609 912.6992,-816 907.569,-817.5242 902.2964,-819.256 897.042,-821.0977"/>
<polygon fill="#000000" stroke="#000000" points="895.8448,-817.8087 887.6386,-824.5101 898.2327,-824.3889 895.8448,-817.8087"/>
</g>
<!-- GO:0044763&#45;&gt;GO:0044699 -->
<g id="edge52" class="edge">
<title>GO:0044763&#45;&gt;GO:0044699</title>
<path fill="none" stroke="#000000" d="M1118.9765,-780.1513C1095.2803,-792.8611 1067.8088,-807.5957 1045.0098,-819.8243"/>
<polygon fill="#000000" stroke="#000000" points="1043.3554,-816.7399 1036.1974,-824.551 1046.6641,-822.9086 1043.3554,-816.7399"/>
</g>
</g>
</svg>
